<svg width="48" height="48" viewBox="0 0 48 48" fill="none" xmlns="http://www.w3.org/2000/svg">
<path fill-rule="evenodd" clip-rule="evenodd" d="M29.794 5.6842C30.622 5.6842 31.294 6.3562 31.294 7.1842C31.294 8.0122 30.622 8.6842 29.794 8.6842H15.258C10.242 8.6842 7 12.1322 7 17.4722V33.6362C7 39.0462 10.164 42.4062 15.258 42.4062H32.466C37.482 42.4062 40.724 38.9642 40.724 33.6362V19.5582C40.724 18.7302 41.396 18.0582 42.224 18.0582C43.052 18.0582 43.724 18.7302 43.724 19.5582V33.6362C43.724 40.6762 39.2 45.4062 32.466 45.4062H15.258C8.524 45.4062 4 40.6762 4 33.6362V17.4722C4 10.4222 8.524 5.6842 15.258 5.6842H29.794ZM34.0248 19.3438C34.6808 19.8518 34.8008 20.7938 34.2928 21.4478L28.4328 29.0078C28.1888 29.3238 27.8288 29.5298 27.4328 29.5778C27.0328 29.6318 26.6368 29.5158 26.3208 29.2698L20.6848 24.8418L15.6228 31.4198C15.3268 31.8038 14.8828 32.0058 14.4328 32.0058C14.1128 32.0058 13.7908 31.9038 13.5188 31.6958C12.8628 31.1898 12.7388 30.2478 13.2448 29.5918L19.2308 21.8118C19.4748 21.4938 19.8368 21.2878 20.2328 21.2378C20.6368 21.1858 21.0328 21.2978 21.3468 21.5478L26.9868 25.9778L31.9208 19.6118C32.4288 18.9538 33.3688 18.8318 34.0248 19.3438ZM39.9348 4C42.8828 4 45.2788 6.396 45.2788 9.344C45.2788 12.292 42.8828 14.69 39.9348 14.69C36.9888 14.69 34.5908 12.292 34.5908 9.344C34.5908 6.396 36.9888 4 39.9348 4ZM39.9348 7C38.6428 7 37.5908 8.05 37.5908 9.344C37.5908 10.636 38.6428 11.69 39.9348 11.69C41.2268 11.69 42.2788 10.636 42.2788 9.344C42.2788 8.05 41.2268 7 39.9348 7Z" fill="black"/>
</svg>
