<svg width="48" height="48" viewBox="0 0 48 48" fill="none" xmlns="http://www.w3.org/2000/svg">
<path fill-rule="evenodd" clip-rule="evenodd" d="M19.754 28.912L19.9922 28.9121L20.5201 28.9135C25.004 28.9375 35.508 29.3451 35.508 36.274C35.508 42.6982 26.8812 43.5566 20.1708 43.589L18.9879 43.5885C14.504 43.5645 4 43.1571 4 36.23C4 29.67 12.99 28.912 19.754 28.912ZM19.754 31.912C11.292 31.912 7 33.366 7 36.23C7 39.122 11.292 40.59 19.754 40.59C28.216 40.59 32.508 39.136 32.508 36.274C32.508 33.378 28.216 31.912 19.754 31.912ZM38.4082 15.8374C39.2362 15.8374 39.9082 16.5094 39.9082 17.3374L39.908 19.846L42.5 19.8476C43.328 19.8476 44 20.5196 44 21.3476C44 22.1756 43.328 22.8476 42.5 22.8476L39.908 22.846L39.9082 25.3594C39.9082 26.1874 39.2362 26.8594 38.4082 26.8594C37.5802 26.8594 36.9082 26.1874 36.9082 25.3594L36.908 22.846L34.32 22.8476C33.492 22.8476 32.82 22.1756 32.82 21.3476C32.82 20.5196 33.492 19.8476 34.32 19.8476L36.908 19.846L36.9082 17.3374C36.9082 16.5094 37.5802 15.8374 38.4082 15.8374ZM19.754 4C25.62 4 30.39 8.772 30.39 14.636C30.39 20.5 25.62 25.272 19.754 25.272H19.692C16.854 25.262 14.194 24.148 12.2 22.14C10.204 20.13 9.11 17.462 9.11993 14.63C9.11993 8.772 13.89 4 19.754 4ZM19.754 7C15.546 7 12.1199 10.426 12.1199 14.636C12.112 16.674 12.896 18.584 14.326 20.026C15.758 21.466 17.666 22.264 19.698 22.272L19.754 23.754V22.272C23.964 22.272 27.39 18.846 27.39 14.636C27.39 10.426 23.964 7 19.754 7Z" fill="black"/>
</svg>
