<svg width="48" height="48" viewBox="0 0 48 48" fill="none" xmlns="http://www.w3.org/2000/svg">
<path fill-rule="evenodd" clip-rule="evenodd" d="M23.5023 6.00021C24.3303 6.00021 25.0023 6.67221 25.0023 7.50021L25.002 23.9002H33.5051C34.0511 23.9002 34.5531 24.1962 34.8171 24.6762C35.0831 25.1542 35.0651 25.7382 34.7731 26.1982L24.7711 42.0722C24.4971 42.5102 24.0171 42.7742 23.5031 42.7742C22.9871 42.7742 22.5091 42.5102 22.2331 42.0722L12.2311 26.1982C11.9391 25.7382 11.9231 25.1542 12.1871 24.6762C12.4511 24.1962 12.9531 23.9002 13.5011 23.9002H22.002L22.0023 7.50021C22.0023 6.67221 22.6743 6.00021 23.5023 6.00021ZM30.7851 26.9002H16.2191L23.5031 38.4582L30.7851 26.9002Z" fill="black"/>
</svg>
