<svg width="48" height="48" viewBox="0 0 48 48" fill="none" xmlns="http://www.w3.org/2000/svg">
<path fill-rule="evenodd" clip-rule="evenodd" d="M32.67 4C39.448 4 44 8.756 44 15.832V32.168C44 39.244 39.448 44 32.67 44H15.332C8.554 44 4 39.244 4 32.168V15.832C4 8.756 8.554 4 15.332 4H32.67ZM32.67 7H15.332C10.272 7 7 10.466 7 15.832V32.168C7 37.534 10.272 41 15.332 41H32.67C37.73 41 41 37.534 41 32.168V15.832C41 10.466 37.73 7 32.67 7ZM24 14.3278C24.828 14.3278 25.5 14.9998 25.5 15.8278V28.54L30.434 23.5858C31.02 22.9958 31.968 22.9998 32.554 23.5818C33.14 24.1658 33.144 25.1158 32.558 25.7038L25.062 33.2318C25.013 33.2798 24.9623 33.3242 24.9088 33.365L25.062 33.2318C24.9833 33.3117 24.8963 33.3816 24.8031 33.4408C24.7804 33.4531 24.7582 33.4664 24.7357 33.4791C24.693 33.5053 24.6477 33.5279 24.6013 33.5482C24.5882 33.552 24.5762 33.5571 24.5641 33.562C24.5177 33.5827 24.4691 33.5996 24.4198 33.614C24.3892 33.6211 24.3588 33.6289 24.328 33.6358C24.2904 33.646 24.2527 33.6529 24.2146 33.6584C24.184 33.661 24.152 33.6645 24.1198 33.6671C24.0795 33.6722 24.0398 33.6738 24 33.6738L23.882 33.664L23.7965 33.6581C23.7925 33.6575 23.7884 33.657 23.7843 33.6564L24 33.6738C23.889 33.6738 23.779 33.6615 23.6722 33.6376C23.6412 33.6289 23.6108 33.6211 23.5808 33.6123C23.5309 33.5996 23.4823 33.5827 23.4348 33.5634C23.4238 33.5571 23.4118 33.552 23.3999 33.5468C23.3523 33.5279 23.307 33.5053 23.2628 33.4803C23.2418 33.4664 23.2196 33.4531 23.1978 33.4393C23.1603 33.4175 23.1247 33.3926 23.0901 33.3661C23.032 33.3198 22.9763 33.2704 22.9245 33.2171L15.442 25.7038C14.856 25.1158 14.86 24.1658 15.446 23.5818C16.034 22.9998 16.982 22.9958 17.566 23.5858L22.5 28.54V15.8278C22.5 14.9998 23.172 14.3278 24 14.3278Z" fill="black"/>
</svg>
