<svg width="48" height="48" viewBox="0 0 48 48" fill="none" xmlns="http://www.w3.org/2000/svg">
<path d="M23.4518 40C22.6924 40 22.0648 39.4357 21.9655 38.7035L21.9518 38.5L21.953 12.132L12.4659 21.658C11.8814 22.245 10.9316 22.2471 10.3446 21.6625C9.81092 21.1312 9.76072 20.2979 10.1952 19.7098L10.34 19.5412L22.388 7.44123C22.4651 7.36385 22.5485 7.29663 22.6365 7.23959C22.663 7.22348 22.6902 7.20708 22.7178 7.19153C22.7415 7.17723 22.7662 7.1643 22.791 7.15211C22.8273 7.13518 22.8647 7.11863 22.9029 7.10361C22.9323 7.09141 22.9609 7.08121 22.9898 7.07192C23.0256 7.06087 23.0637 7.05013 23.1024 7.04089C23.1295 7.03403 23.1555 7.02859 23.1816 7.02385C23.2205 7.01718 23.2607 7.0115 23.3014 7.00745C23.3324 7.00395 23.3632 7.00184 23.3939 7.00068C23.4126 7.00038 23.4321 7 23.4518 7L23.5099 7.00075C23.5393 7.0019 23.5687 7.00391 23.5981 7.00679L23.4518 7C23.5464 7 23.639 7.00877 23.7288 7.02554C23.7503 7.02942 23.7723 7.03406 23.7942 7.03919C23.8394 7.04984 23.8829 7.06216 23.9255 7.07634C23.9467 7.0833 23.9693 7.0914 23.9918 7.10007C24.0369 7.1176 24.0799 7.13665 24.1218 7.15761C24.1415 7.16735 24.1622 7.17825 24.1826 7.18967C24.2159 7.20842 24.2476 7.22773 24.2784 7.24815C24.3003 7.26255 24.323 7.27851 24.3454 7.29517L24.3627 7.30815C24.4155 7.34856 24.4655 7.3924 24.5124 7.43934L24.5138 7.44114L36.5638 19.5411C37.1484 20.1281 37.1464 21.0779 36.5594 21.6625C36.0258 22.1939 35.1924 22.2406 34.6061 21.8036L34.4381 21.6581L24.953 12.136L24.9518 38.5C24.9518 39.3284 24.2802 40 23.4518 40Z" fill="black"/>
</svg>
