<svg width="48" height="48" viewBox="0 0 48 48" fill="none" xmlns="http://www.w3.org/2000/svg">
<path fill-rule="evenodd" clip-rule="evenodd" d="M32.67 44C39.448 44 44 39.244 44 32.168V15.832C44 8.756 39.448 4 32.67 4H15.332C8.554 4 4 8.756 4 15.832V32.168C4 39.244 8.554 44 15.332 44H32.67ZM32.67 41H15.332C10.272 41 7 37.534 7 32.168V15.832C7 10.466 10.272 7 15.332 7H32.67C37.73 7 41 10.466 41 15.832V32.168C41 37.534 37.73 41 32.67 41ZM24 33.6722C24.828 33.6722 25.5 33.0002 25.5 32.1722V19.46L30.434 24.4142C31.02 25.0042 31.968 25.0002 32.554 24.4182C33.14 23.8342 33.144 22.8842 32.558 22.2962L25.062 14.7682C25.013 14.7202 24.9623 14.6758 24.9088 14.635L25.062 14.7682C24.9833 14.6883 24.8963 14.6184 24.8031 14.5592C24.7804 14.5469 24.7582 14.5336 24.7357 14.5209C24.693 14.4947 24.6477 14.4721 24.6013 14.4518C24.5882 14.448 24.5762 14.4429 24.5641 14.438C24.5177 14.4173 24.4691 14.4004 24.4198 14.386C24.3892 14.3789 24.3588 14.3711 24.328 14.3642C24.2904 14.354 24.2527 14.3471 24.2146 14.3416C24.184 14.339 24.152 14.3355 24.1198 14.3329C24.0795 14.3278 24.0398 14.3262 24 14.3262L23.882 14.336L23.7965 14.3419C23.7925 14.3425 23.7884 14.343 23.7843 14.3436L24 14.3262C23.889 14.3262 23.779 14.3385 23.6722 14.3624C23.6412 14.3711 23.6108 14.3789 23.5808 14.3877C23.5309 14.4004 23.4823 14.4173 23.4348 14.4366C23.4238 14.4429 23.4118 14.448 23.3999 14.4532C23.3523 14.4721 23.307 14.4947 23.2628 14.5197C23.2418 14.5336 23.2196 14.5469 23.1978 14.5607C23.1603 14.5825 23.1247 14.6074 23.0901 14.6339C23.032 14.6802 22.9763 14.7296 22.9245 14.7829L15.442 22.2962C14.856 22.8842 14.86 23.8342 15.446 24.4182C16.034 25.0002 16.982 25.0042 17.566 24.4142L22.5 19.46V32.1722C22.5 33.0002 23.172 33.6722 24 33.6722Z" fill="black"/>
</svg>
