<svg width="48" height="48" viewBox="0 0 48 48" fill="none" xmlns="http://www.w3.org/2000/svg">
<path fill-rule="evenodd" clip-rule="evenodd" d="M24 4C35.028 4 44 12.972 44 24C44 35.028 35.028 44 24 44C12.972 44 4 35.028 4 24C4 12.972 12.972 4 24 4ZM24 7C14.626 7 7 14.626 7 24C7 33.374 14.626 41 24 41C33.374 41 41 33.374 41 24C41 14.626 33.374 7 24 7ZM25.0634 18.8528L32.0054 25.8268C32.5894 26.4148 32.5874 27.3628 32.0014 27.9468C31.7094 28.2388 31.3254 28.3848 30.9434 28.3848C30.5594 28.3848 30.1734 28.2388 29.8814 27.9428L23.9994 22.0368L18.1214 27.9428C17.5374 28.5308 16.5874 28.5308 15.9994 27.9468C15.4134 27.3628 15.4094 26.4148 15.9954 25.8268L22.9374 18.8528C23.4994 18.2868 24.4994 18.2868 25.0634 18.8528Z" fill="black"/>
</svg>
