<svg width="48" height="48" viewBox="0 0 48 48" fill="none" xmlns="http://www.w3.org/2000/svg">
<path fill-rule="evenodd" clip-rule="evenodd" d="M32.168 4C39.244 4 44 8.552 44 15.33V32.668C44 39.446 39.244 44 32.168 44H15.832C8.756 44 4 39.446 4 32.668V15.33C4 8.552 8.756 4 15.832 4H32.168ZM32.168 7H15.832C10.466 7 7 10.27 7 15.33V32.668C7 37.728 10.466 41 15.832 41H32.168C37.534 41 41 37.728 41 32.668V15.33C41 10.27 37.534 7 32.168 7ZM25.7026 15.442L33.2171 22.9245C33.2733 22.9791 33.3251 23.038 33.3722 23.1008L33.2306 22.938C33.3015 23.0079 33.3645 23.0842 33.4191 23.1656C33.443 23.2025 33.4662 23.2406 33.4877 23.2798C33.5054 23.3105 33.5215 23.3424 33.5364 23.3749C33.55 23.4062 33.5631 23.4376 33.5752 23.4695C33.5876 23.5006 33.5984 23.5323 33.6081 23.5644C33.6418 23.6776 33.6631 23.7965 33.6697 23.9193C33.6719 23.9466 33.6726 23.9732 33.6726 24L33.666 24.078L33.6581 24.2035C33.6473 24.283 33.6302 24.3606 33.6075 24.4357C33.5984 24.4677 33.5876 24.4994 33.5757 24.5308C33.5631 24.5624 33.55 24.5938 33.5358 24.6246C33.5215 24.6576 33.5054 24.6895 33.4882 24.7209C33.4662 24.7594 33.443 24.7975 33.4182 24.8345C33.4044 24.8563 33.3891 24.8779 33.3731 24.8991C33.3294 24.9563 33.2826 25.0102 33.2323 25.0605L33.2306 25.062L25.7026 32.558C25.4106 32.85 25.0266 32.996 24.6446 32.996C24.2606 32.996 23.8746 32.85 23.5826 32.554C22.9986 31.966 23.0006 31.018 23.5866 30.434L28.54 25.5H15.8278C14.9998 25.5 14.3278 24.828 14.3278 24C14.3278 23.172 14.9998 22.5 15.8278 22.5H28.54L23.5866 17.566C23.0006 16.982 22.9986 16.034 23.5826 15.446C24.1666 14.858 25.1146 14.858 25.7026 15.442Z" fill="black"/>
</svg>
