<svg width="48" height="48" viewBox="0 0 48 48" fill="none" xmlns="http://www.w3.org/2000/svg">
<path fill-rule="evenodd" clip-rule="evenodd" d="M23.802 14.2296L7.926 24.2316C7.488 24.5076 7.226 24.9856 7.226 25.5016C7.226 26.0156 7.488 26.4956 7.926 26.7696L23.802 36.7716C24.044 36.9256 24.322 37.0036 24.6 37.0036C24.85 37.0036 25.098 36.9396 25.324 36.8156C25.804 36.5516 26.1 36.0496 26.1 35.5036L26.102 27L42.5 27.0008C43.328 27.0008 44 26.3288 44 25.5008C44 24.6728 43.328 24.0008 42.5 24.0008L26.102 24L26.1 15.4996C26.1 14.9516 25.804 14.4496 25.324 14.1856C24.846 13.9236 24.26 13.9396 23.802 14.2296ZM23.1 18.2176L23.1003 25.4704C23.1001 25.4805 23.1 25.4907 23.1 25.5008L23.102 25.53L23.1 32.7836L11.54 25.5016L23.1 18.2176Z" fill="black"/>
</svg>
