<svg width="48" height="48" viewBox="0 0 48 48" fill="none" xmlns="http://www.w3.org/2000/svg">
<path d="M8 23.4514C8 22.692 8.56431 22.0644 9.29646 21.9651L9.5 21.9514L35.868 21.9526L26.342 12.4655C25.755 11.881 25.7529 10.9313 26.3375 10.3442C26.8688 9.81053 27.7021 9.76032 28.2902 10.1948L28.4588 10.3396L40.5588 22.3876C40.6362 22.4647 40.7034 22.5481 40.7604 22.6361C40.7765 22.6626 40.7929 22.6898 40.8085 22.7174C40.8228 22.7411 40.8357 22.7658 40.8479 22.7906C40.8648 22.8269 40.8814 22.8643 40.8964 22.9025C40.9086 22.9319 40.9188 22.9605 40.9281 22.9894C40.9391 23.0252 40.9499 23.0633 40.9591 23.102C40.966 23.1291 40.9714 23.1551 40.9762 23.1812C40.9828 23.2201 40.9885 23.2603 40.9926 23.301C40.9961 23.332 40.9982 23.3628 40.9993 23.3935C40.9996 23.4122 41 23.4318 41 23.4514L40.9992 23.5095C40.9981 23.5389 40.9961 23.5683 40.9932 23.5977L41 23.4514C41 23.546 40.9912 23.6386 40.9745 23.7284C40.9706 23.7499 40.9659 23.7719 40.9608 23.7938C40.9502 23.839 40.9378 23.8825 40.9237 23.9251C40.9167 23.9463 40.9086 23.9689 40.8999 23.9914C40.8824 24.0365 40.8634 24.0795 40.8424 24.1214C40.8327 24.1411 40.8217 24.1618 40.8103 24.1822C40.7916 24.2155 40.7723 24.2472 40.7519 24.278C40.7374 24.2999 40.7215 24.3226 40.7048 24.345L40.6919 24.3623C40.6514 24.4151 40.6076 24.4651 40.5607 24.512L40.5589 24.5134L28.4589 36.5634C27.8719 37.148 26.9221 37.146 26.3375 36.559C25.8061 36.0254 25.7594 35.192 26.1964 34.6057L26.3419 34.4377L35.864 24.9526L9.5 24.9514C8.67157 24.9514 8 24.2798 8 23.4514Z" fill="black"/>
</svg>
