<svg width="48" height="48" viewBox="0 0 48 48" fill="none" xmlns="http://www.w3.org/2000/svg">
<path fill-rule="evenodd" clip-rule="evenodd" d="M15.832 4C8.756 4 4 8.552 4 15.33V32.668C4 39.446 8.756 44 15.832 44H32.168C39.244 44 44 39.446 44 32.668V15.33C44 8.552 39.244 4 32.168 4H15.832ZM15.832 7H32.168C37.534 7 41 10.27 41 15.33V32.668C41 37.728 37.534 41 32.168 41H15.832C10.466 41 7 37.728 7 32.668V15.33C7 10.27 10.466 7 15.832 7ZM22.2974 15.442L14.7829 22.9245C14.7267 22.9791 14.6749 23.038 14.6278 23.1008L14.7694 22.938C14.6985 23.0079 14.6355 23.0842 14.5809 23.1656C14.557 23.2025 14.5338 23.2406 14.5123 23.2798C14.4946 23.3105 14.4785 23.3424 14.4636 23.3749C14.45 23.4062 14.4369 23.4376 14.4248 23.4695C14.4124 23.5006 14.4016 23.5323 14.3919 23.5644C14.3582 23.6776 14.3369 23.7965 14.3303 23.9193C14.3281 23.9466 14.3274 23.9732 14.3274 24L14.334 24.078L14.3419 24.2035C14.3527 24.283 14.3698 24.3606 14.3925 24.4357C14.4016 24.4677 14.4124 24.4994 14.4243 24.5308C14.4369 24.5624 14.45 24.5938 14.4642 24.6246C14.4785 24.6576 14.4946 24.6895 14.5118 24.7209C14.5338 24.7594 14.557 24.7975 14.5818 24.8345C14.5956 24.8563 14.6109 24.8779 14.6269 24.8991C14.6706 24.9563 14.7174 25.0102 14.7677 25.0605L14.7694 25.062L22.2974 32.558C22.5894 32.85 22.9734 32.996 23.3554 32.996C23.7394 32.996 24.1254 32.85 24.4174 32.554C25.0014 31.966 24.9994 31.018 24.4134 30.434L19.46 25.5H32.1722C33.0002 25.5 33.6722 24.828 33.6722 24C33.6722 23.172 33.0002 22.5 32.1722 22.5H19.46L24.4134 17.566C24.9994 16.982 25.0014 16.034 24.4174 15.446C23.8334 14.858 22.8854 14.858 22.2974 15.442Z" fill="black"/>
</svg>
