<svg width="48" height="48" viewBox="0 0 48 48" fill="none" xmlns="http://www.w3.org/2000/svg">
<path fill-rule="evenodd" clip-rule="evenodd" d="M23.5023 43.9998C24.3303 43.9998 25.0023 43.3278 25.0023 42.4998L25.002 26.1018L33.5051 26.0998C34.0511 26.0998 34.5531 25.8038 34.8171 25.3238C35.0831 24.8458 35.0651 24.2618 34.7731 23.8018L24.7711 7.92779C24.4971 7.48979 24.0171 7.22579 23.5031 7.22579C22.9871 7.22579 22.5091 7.48979 22.2331 7.92779L12.2311 23.8018C11.9391 24.2618 11.9231 24.8458 12.1871 25.3238C12.4511 25.8038 12.9531 26.0998 13.5011 26.0998L22.002 26.1018L22.0023 42.4998C22.0023 43.3278 22.6743 43.9998 23.5023 43.9998ZM30.7851 23.0998L23.5309 23.1001C23.5214 23.0999 23.5119 23.0998 23.5023 23.0998L23.472 23.1018L16.2191 23.0998L23.5031 11.5418L30.7851 23.0998Z" fill="black"/>
</svg>
