<svg width="48" height="48" viewBox="0 0 48 48" fill="none" xmlns="http://www.w3.org/2000/svg">
<path fill-rule="evenodd" clip-rule="evenodd" d="M24 4C35.028 4 44 12.972 44 24C44 35.028 35.028 44 24 44C12.972 44 4 35.028 4 24C4 12.972 12.972 4 24 4ZM24 7C14.626 7 7 14.626 7 24C7 33.374 14.626 41 24 41C33.374 41 41 33.374 41 24C41 14.626 33.374 7 24 7ZM22.1752 15.9954L29.1472 22.9374C29.4292 23.2194 29.5872 23.6014 29.5872 23.9994C29.5872 24.3994 29.4292 24.7814 29.1472 25.0634L22.1752 32.0034C21.8832 32.2954 21.4992 32.4414 21.1172 32.4414C20.7332 32.4414 20.3472 32.2954 20.0552 31.9994C19.4712 31.4114 19.4732 30.4634 20.0592 29.8794L25.9632 23.9994L20.0592 18.1214C19.4732 17.5374 19.4712 16.5874 20.0552 15.9994C20.6392 15.4094 21.5872 15.4134 22.1752 15.9954Z" fill="black"/>
</svg>
