<svg width="48" height="48" viewBox="0 0 48 48" fill="none" xmlns="http://www.w3.org/2000/svg">
<path d="M24.5487 8C25.3081 8 25.9357 8.56431 26.035 9.29646L26.0487 9.5L26.0475 35.868L35.5346 26.342C36.1191 25.755 37.0688 25.7529 37.6559 26.3375C38.1896 26.8688 38.2398 27.7021 37.8053 28.2902L37.6605 28.4588L25.6125 40.5588C25.5354 40.6362 25.452 40.7034 25.364 40.7604C25.3374 40.7765 25.3103 40.7929 25.2827 40.8085C25.259 40.8228 25.2343 40.8357 25.2094 40.8479C25.1732 40.8648 25.1358 40.8814 25.0976 40.8964C25.0682 40.9086 25.0396 40.9188 25.0107 40.9281C24.9749 40.9391 24.9368 40.9499 24.8981 40.9591C24.871 40.966 24.845 40.9714 24.8189 40.9762C24.78 40.9828 24.7398 40.9885 24.6991 40.9926C24.6681 40.9961 24.6373 40.9982 24.6065 40.9993C24.5879 40.9996 24.5683 41 24.5487 41L24.4906 40.9992C24.4612 40.9981 24.4318 40.9961 24.4024 40.9932L24.5487 41C24.4541 41 24.3614 40.9912 24.2717 40.9745C24.2502 40.9706 24.2282 40.9659 24.2063 40.9608C24.1611 40.9502 24.1176 40.9378 24.075 40.9237C24.0538 40.9167 24.0312 40.9086 24.0087 40.8999C23.9636 40.8824 23.9206 40.8634 23.8787 40.8424C23.8589 40.8327 23.8383 40.8217 23.8179 40.8103C23.7846 40.7916 23.7529 40.7723 23.7221 40.7519C23.7002 40.7374 23.6775 40.7215 23.6551 40.7048L23.6378 40.6919C23.585 40.6514 23.535 40.6076 23.4881 40.5607L23.4867 40.5589L11.4367 28.4589C10.8521 27.8719 10.8541 26.9221 11.441 26.3375C11.9747 25.8061 12.8081 25.7594 13.3944 26.1964L13.5624 26.3419L23.0475 35.864L23.0487 9.5C23.0487 8.67157 23.7203 8 24.5487 8Z" fill="black"/>
</svg>
