<svg width="48" height="48" viewBox="0 0 48 48" fill="none" xmlns="http://www.w3.org/2000/svg">
<path fill-rule="evenodd" clip-rule="evenodd" d="M24 4C35.028 4 44 12.972 44 24C44 35.028 35.028 44 24 44C12.972 44 4 35.028 4 24C4 12.972 12.972 4 24 4ZM24 7C14.626 7 7 14.626 7 24C7 33.374 14.626 41 24 41C33.374 41 41 33.374 41 24C41 14.626 33.374 7 24 7ZM27.9468 15.9994C28.5328 16.5874 28.5288 17.5374 27.9428 18.1214L22.0388 23.9994L27.9428 29.8794C28.5288 30.4634 28.5328 31.4114 27.9468 31.9994C27.6548 32.2954 27.2688 32.4414 26.8848 32.4414C26.5028 32.4414 26.1188 32.2954 25.8268 32.0034L18.8528 25.0634C18.5708 24.7814 18.4128 24.3994 18.4128 23.9994C18.4128 23.6014 18.5708 23.2194 18.8528 22.9374L25.8268 15.9954C26.4128 15.4114 27.3608 15.4114 27.9468 15.9994Z" fill="black"/>
</svg>
