<svg width="48" height="48" viewBox="0 0 48 48" fill="none" xmlns="http://www.w3.org/2000/svg">
<path fill-rule="evenodd" clip-rule="evenodd" d="M23.5617 4.00061C28.7894 4.00061 33.108 7.98393 33.6405 13.0785L33.7891 13.0802C36.6891 13.0802 40.2151 15.0062 41.4051 20.4082L42.9831 32.6222C43.5491 36.5642 42.8411 39.7262 40.8751 41.9942C38.9191 44.2502 35.8231 45.4442 31.9211 45.4442H15.2251C10.9391 45.4442 7.95306 44.3942 6.09506 42.2362C4.22906 40.0722 3.60506 36.8262 4.24106 32.5902L5.79306 20.5382C6.81306 15.0122 10.5431 13.0802 13.4311 13.0802C13.6804 10.7812 14.7171 8.59401 16.3617 6.95461C18.2517 5.07661 20.8577 4.00061 23.5197 4.00061H23.5617ZM33.7891 16.0802H13.4311C12.5491 16.0802 9.60106 16.4362 8.75506 21.0042L7.21106 33.0042C6.70906 36.3702 7.09706 38.8062 8.36706 40.2802C9.62106 41.7362 11.8651 42.4442 15.2251 42.4442H31.9211C34.0171 42.4442 36.8791 42.0262 38.6071 40.0302C39.9791 38.4482 40.4511 36.0922 40.0111 33.0262L38.4531 20.9222C37.7891 17.9402 36.0371 16.0802 33.7891 16.0802ZM29.3947 21.6484C30.2227 21.6484 30.9407 22.3204 30.9407 23.1484C30.9407 23.9764 30.3147 24.6484 29.4867 24.6484H29.3947C28.5667 24.6484 27.8947 23.9764 27.8947 23.1484C27.8947 22.3204 28.5667 21.6484 29.3947 21.6484ZM17.7345 21.6484C18.5625 21.6484 19.2805 22.3204 19.2805 23.1484C19.2805 23.9764 18.6525 24.6484 17.8245 24.6484H17.7345C16.9065 24.6484 16.2345 23.9764 16.2345 23.1484C16.2345 22.3204 16.9065 21.6484 17.7345 21.6484ZM23.5557 7.00061H23.5257C21.6437 7.00061 19.8097 7.75861 18.4797 9.08061C17.3963 10.1591 16.6877 11.577 16.4585 13.0793L30.6171 13.0798C30.1031 9.64337 27.1315 7.00061 23.5557 7.00061Z" fill="black"/>
</svg>
