<svg width="48" height="48" viewBox="0 0 48 48" fill="none" xmlns="http://www.w3.org/2000/svg">
<path fill-rule="evenodd" clip-rule="evenodd" d="M23.5077 3.99939C28.4563 3.99939 32.4913 8.00511 32.5452 12.9472L32.9835 12.9492C38.5075 12.9492 42.9995 17.4392 42.9995 22.9592V33.9912C42.9995 39.5092 38.5075 43.9992 32.9835 43.9992H14.0155C8.49351 43.9992 3.99951 39.5092 3.99951 33.9912V22.9592C3.99951 17.4392 8.49351 12.9492 14.0155 12.9492L14.4235 12.9474L14.4362 12.5584C14.5618 10.2895 15.4962 8.20806 17.0997 6.62139C18.8157 4.91939 21.1197 4.06939 23.5077 3.99939ZM32.9835 15.9492L32.5455 15.9474L32.5457 19.1114C32.5457 19.9394 31.8737 20.6114 31.0457 20.6114C30.2177 20.6114 29.5457 19.9394 29.5457 19.1114L29.5455 15.9474H17.4215L17.4217 19.1114C17.4217 19.9394 16.7497 20.6114 15.9217 20.6114C15.0937 20.6114 14.4217 19.9394 14.4217 19.1114L14.4215 15.9474L14.0155 15.9492C10.1475 15.9492 6.99951 19.0932 6.99951 22.9592V33.9912C6.99951 37.8552 10.1475 40.9992 14.0155 40.9992H32.9835C36.8515 40.9992 39.9995 37.8552 39.9995 33.9912V22.9592C39.9995 19.0932 36.8515 15.9492 32.9835 15.9492ZM23.5017 6.99939C21.8797 7.05539 20.3597 7.61539 19.2117 8.75139C18.0804 9.87288 17.4463 11.3595 17.4224 12.9472L29.5415 12.9474L29.5354 12.6926C29.3513 9.52299 26.7166 6.99939 23.5017 6.99939Z" fill="black"/>
</svg>
