<svg width="48" height="48" viewBox="0 0 48 48" fill="none" xmlns="http://www.w3.org/2000/svg">
<path fill-rule="evenodd" clip-rule="evenodd" d="M29.402 4C36.186 4 40.078 7.358 40.078 13.208V42.28C40.078 43.5 39.45 44.598 38.394 45.212C37.342 45.828 36.074 45.84 35.01 45.24L23.09 38.506L11.06 45.254C10.54 45.546 9.97 45.694 9.398 45.694C8.808 45.694 8.218 45.536 7.682 45.22C6.628 44.606 6 43.508 6 42.29V12.842C6 7.222 9.894 4 16.684 4H29.402ZM29.402 7H16.684C11.586 7 9 8.964 9 12.842V42.29C9 42.478 9.108 42.58 9.198 42.632C9.288 42.688 9.43 42.728 9.594 42.636L22.358 35.476C22.814 35.222 23.372 35.22 23.83 35.478L36.484 42.626C36.65 42.722 36.792 42.678 36.882 42.624C36.972 42.57 37.078 42.468 37.078 42.28L37.0773 12.9801C37.0621 11.2587 36.7291 7 29.402 7ZM30.2796 17.457C31.1076 17.457 31.7796 18.129 31.7796 18.957C31.7796 19.785 31.1076 20.457 30.2796 20.457H15.6436C14.8156 20.457 14.1436 19.785 14.1436 18.957C14.1436 18.129 14.8156 17.457 15.6436 17.457H30.2796Z" fill="black"/>
</svg>
