<svg width="48" height="48" viewBox="0 0 48 48" fill="none" xmlns="http://www.w3.org/2000/svg">
<path fill-rule="evenodd" clip-rule="evenodd" d="M15.0868 39.9036C16.5148 39.9036 17.6768 41.0636 17.6768 42.4916C17.6768 43.9196 16.5148 45.0816 15.0868 45.0816C13.6588 45.0816 12.4988 43.9196 12.4988 42.4916C12.4988 41.0636 13.6588 39.9036 15.0868 39.9036ZM37.6474 39.9036C39.0774 39.9036 40.2394 41.0636 40.2394 42.4916C40.2394 43.9196 39.0774 45.0816 37.6474 45.0816C36.2194 45.0816 35.0594 43.9196 35.0594 42.4916C35.0594 41.0636 36.2194 39.9036 37.6474 39.9036ZM6.53519 6.01879L10.6952 6.73879C11.3652 6.85679 11.8752 7.41279 11.9332 8.09279L12.4032 13.6948L14.1509 13.6955C14.4361 13.6957 14.7182 13.6958 14.9974 13.6959L18.206 13.6974C18.4618 13.6976 18.7147 13.6977 18.9648 13.6978L22.5076 13.6998C22.7301 13.6999 22.95 13.7 23.1673 13.7002L25.65 13.7018C25.8466 13.7019 26.0408 13.702 26.2325 13.7022L28.4161 13.7038C28.5885 13.7039 28.7586 13.704 28.9263 13.7042L30.8302 13.7058C30.98 13.7059 31.1275 13.7061 31.2729 13.7062L32.5243 13.7075C32.6571 13.7076 32.7878 13.7077 32.9165 13.7079L34.3656 13.7096C34.4786 13.7097 34.5897 13.7098 34.699 13.71L35.9225 13.7117C36.0174 13.7118 36.1105 13.712 36.2019 13.7121L36.9795 13.7134C37.061 13.7136 37.1409 13.7137 37.2192 13.7139L38.0854 13.7156C38.1517 13.7158 38.2164 13.7159 38.2798 13.7161L38.8129 13.7174C38.8681 13.7175 38.922 13.7177 38.9746 13.7178L39.5461 13.7196C39.5889 13.7198 39.6306 13.7199 39.6712 13.7201L40.0067 13.7215C40.0409 13.7216 40.0739 13.7218 40.106 13.7219L40.4455 13.7238C40.4701 13.7239 40.4939 13.7241 40.5169 13.7242L40.7019 13.7256C40.7202 13.7258 40.7377 13.7259 40.7545 13.7261L40.8877 13.7275C40.9005 13.7277 40.9128 13.7278 40.9245 13.728L41.0151 13.7294C41.0237 13.7296 41.0317 13.7298 41.0393 13.7299L41.0967 13.7314C41.1019 13.7315 41.1068 13.7317 41.1113 13.7319L41.1529 13.7338C41.1554 13.734 41.1578 13.7341 41.16 13.7343C41.1795 13.7361 41.1823 13.7365 41.1852 13.7368C42.2992 13.8988 43.2792 14.4808 43.9472 15.3768C44.6152 16.2708 44.8952 17.3728 44.7352 18.4768L42.8372 31.5928C42.4792 34.0888 40.3112 35.9708 37.7912 35.9708H15.9492C13.3152 35.9708 11.0852 33.9148 10.8712 31.2848L9.03919 9.49679L6.02519 8.97679C5.20719 8.83279 4.66119 8.05879 4.80119 7.24079C4.94519 6.42279 5.73519 5.89079 6.53519 6.01879ZM13.7497 16.6955L12.6552 16.6948L13.8612 31.0388C13.9492 32.1428 14.8512 32.9708 15.9532 32.9708H37.7872C38.8292 32.9708 39.7192 32.1948 39.8672 31.1648L41.7672 18.0468C41.8112 17.7348 41.7332 17.4228 41.5432 17.1708C41.3552 16.9168 41.0792 16.7528 40.7672 16.7088C40.7528 16.7093 40.7182 16.7098 40.6645 16.7103L40.447 16.7115C40.4015 16.7117 40.3515 16.7119 40.297 16.7121L39.164 16.7138C39.0684 16.7139 38.969 16.7139 38.8659 16.714L36.202 16.7139C36.0533 16.7138 35.9019 16.7137 35.7477 16.7137L32.7075 16.7118C32.5253 16.7117 32.3412 16.7116 32.1552 16.7114L30.4349 16.71C30.239 16.7099 30.0416 16.7097 29.8428 16.7095L28.0207 16.7079C27.8149 16.7078 27.6081 16.7076 27.4005 16.7074L26.1453 16.7062C25.9347 16.706 25.7235 16.7058 25.5118 16.7056L23.5964 16.7038C23.3828 16.7036 23.1691 16.7034 22.9554 16.7032L21.6741 16.7021C21.4609 16.7019 21.2479 16.7017 21.0353 16.7015L19.7649 16.7003C19.5542 16.7001 19.3441 16.6999 19.1348 16.6998L17.2737 16.6981C17.0699 16.698 16.8671 16.6978 16.6656 16.6976L14.3138 16.6959C14.124 16.6957 13.9359 16.6956 13.7497 16.6955ZM34.575 21.0874C35.403 21.0874 36.075 21.7594 36.075 22.5874C36.075 23.4154 35.403 24.0874 34.575 24.0874H29.031C28.201 24.0874 27.531 23.4154 27.531 22.5874C27.531 21.7594 28.201 21.0874 29.031 21.0874H34.575Z" fill="black"/>
</svg>
