<svg width="48" height="48" viewBox="0 0 48 48" fill="none" xmlns="http://www.w3.org/2000/svg">
<path fill-rule="evenodd" clip-rule="evenodd" d="M13.3148 4.00081C15.5488 4.03081 17.1408 5.70481 19.1548 7.82281C19.6528 8.34481 20.1908 8.91481 20.7928 9.51481C23.7108 12.4348 22.8808 14.8168 22.2108 16.7288C21.4828 18.8148 20.8528 20.6148 24.6248 24.3868C28.3968 28.1588 30.1948 27.5288 32.2788 26.7948C34.1928 26.1268 36.5688 25.2908 39.4928 28.2108C40.0868 28.8048 40.6468 29.3368 41.1668 29.8308C43.2928 31.8548 44.9728 33.4528 45.0011 35.6928C45.0228 37.6008 43.8628 39.5488 40.9988 42.4128L39.7308 41.5528L40.8048 42.5988C40.1708 43.2488 38.4848 44.9808 35.1828 45.0008H35.1228C30.1388 45.0008 23.6408 41.0328 15.8088 33.2028C7.94482 25.3408 3.97082 18.8228 4.00065 13.8288C4.01882 10.5288 5.74882 8.83881 6.39882 8.20481L6.4543 8.14421L6.58882 8.00881C9.45882 5.13881 11.4308 3.95881 13.3148 4.00081ZM13.2768 7.00081H13.2608C12.3627 7.00081 10.9988 7.90081 9.09648 9.7486L8.71449 10.1237L8.71882 10.1228C8.72122 10.1228 8.68618 10.1602 8.63055 10.217L8.49682 10.3508C8.01282 10.8208 7.01082 11.7988 7.00072 13.8448C6.98482 16.7068 8.86682 22.0208 17.9288 31.0808C26.9468 40.0968 32.2528 42.0008 35.1228 42.0008H35.1648C37.2108 41.9888 38.1868 40.9868 38.6568 40.5048C38.7988 40.3588 38.9148 40.2488 38.9968 40.1828C40.9908 38.1768 42.0108 36.6868 42.0009 35.7288C41.9888 34.7528 40.7748 33.6008 39.0968 32.0028C38.5628 31.4968 37.9828 30.9428 37.3708 30.3308C35.7828 28.7488 35.0008 29.0188 33.2708 29.6268C30.8808 30.4648 27.6068 31.6128 22.5048 26.5068C17.4008 21.4048 18.5448 18.1308 19.3788 15.7388C19.9828 14.0108 20.2588 13.2248 18.6728 11.6368C18.0528 11.0168 17.4948 10.4288 16.9808 9.88881C15.3928 8.22081 14.2468 7.01481 13.2768 7.00081ZM30.493 11.1158C34.655 11.9238 37.869 15.1358 38.679 19.2998C38.837 20.1158 38.307 20.9018 37.495 21.0598C37.397 21.0778 37.301 21.0878 37.205 21.0878C36.501 21.0878 35.875 20.5918 35.735 19.8758C35.159 16.9158 32.877 14.6338 29.921 14.0598C29.107 13.9018 28.577 13.1158 28.735 12.3018C28.893 11.4878 29.693 10.9558 30.493 11.1158ZM30.3732 4.01221C38.5292 4.91821 44.8632 11.2442 45.7772 19.3982C45.8692 20.2222 45.2772 20.9642 44.4552 21.0562C44.3992 21.0622 44.3412 21.0662 44.2852 21.0662C43.5312 21.0662 42.8832 20.5002 42.7972 19.7342C42.0392 12.9822 36.7952 7.74221 30.0412 6.99221C29.2192 6.90021 28.6252 6.16021 28.7172 5.33621C28.8072 4.51421 29.5412 3.90821 30.3732 4.01221Z" fill="black"/>
</svg>
