<svg width="48" height="48" viewBox="0 0 48 48" fill="none" xmlns="http://www.w3.org/2000/svg">
<path fill-rule="evenodd" clip-rule="evenodd" d="M40.3049 10.2048C40.9089 10.7708 40.9389 11.7208 40.3729 12.3248L27.0507 26.5374C29.3028 28.072 30.6262 27.594 32.2649 27.0072C34.0529 26.3632 36.5029 25.4872 39.3869 28.4152C39.9669 29.0072 40.5149 29.5392 41.0189 30.0312C43.1049 32.0572 44.7509 33.6572 44.7789 35.8892C44.8049 37.7932 43.6669 39.7392 40.8629 42.6032L39.6109 41.7372L40.7069 42.7592C40.1009 43.4072 38.4929 45.1272 35.3029 45.1972C35.2349 45.1992 35.1689 45.1992 35.1049 45.1992C30.7094 45.1992 25.1231 41.9986 18.4819 35.6767L10.3729 44.3248C10.0769 44.6408 9.67891 44.7988 9.27891 44.7988C8.91091 44.7988 8.54291 44.6648 8.25291 44.3928C7.64891 43.8268 7.61891 42.8768 8.18491 42.2728L38.1849 10.2728C38.7489 9.66681 39.7009 9.63681 40.3049 10.2048ZM24.983 28.7458L20.5344 33.4897C28.1628 40.7663 32.6796 42.3093 35.2349 42.1972C37.1649 42.1572 38.0769 41.1792 38.5149 40.7112C38.6369 40.5812 38.7329 40.4852 38.8049 40.4212C40.7909 38.3892 41.7929 36.8932 41.7809 35.9252C41.7669 34.9392 40.5769 33.7832 38.9289 32.1812C38.4069 31.6752 37.8429 31.1272 37.2449 30.5192C35.7109 28.9552 34.9509 29.2272 33.2809 29.8312C31.3394 30.53 28.7166 31.4785 24.983 28.7458ZM13.1787 4.00101C15.4007 4.02901 16.9707 5.70701 18.9587 7.83301C19.4467 8.35501 19.9787 8.92101 20.5667 9.51901C23.4267 12.437 22.6147 14.813 21.9607 16.721C21.4887 18.103 21.0767 19.299 21.8247 21.001C22.1587 21.761 21.8147 22.647 21.0567 22.979C20.2927 23.311 19.4107 22.967 19.0787 22.209C17.8607 19.431 18.5887 17.303 19.1227 15.749C19.7007 14.063 19.9907 13.217 18.4267 11.623C17.8207 11.007 17.2727 10.421 16.7667 9.88301C15.2087 8.21501 14.0807 7.01101 13.1407 7.00101H13.1247C12.2491 7.00101 10.9094 7.89749 9.03808 9.74155L8.662 10.117L8.66046 10.1185L8.65671 10.123C8.66671 10.117 8.57271 10.215 8.45071 10.335C4.16671 14.567 10.4487 23.041 14.5747 27.717C15.1227 28.337 15.0647 29.285 14.4427 29.835C14.1587 30.085 13.8047 30.209 13.4507 30.209C13.0367 30.209 12.6227 30.037 12.3267 29.701C1.64271 17.597 3.17471 11.329 6.34271 8.20101C6.37471 8.16101 6.48471 8.05301 6.51871 8.01701C9.32671 5.16701 11.2467 4.00101 13.1207 4.00101H13.1787Z" fill="black"/>
</svg>
