<svg width="48" height="48" viewBox="0 0 48 48" fill="none" xmlns="http://www.w3.org/2000/svg">
<path fill-rule="evenodd" clip-rule="evenodd" d="M8.71882 10.1214C8.72282 10.1214 8.62282 10.2254 8.49682 10.3494C8.01282 10.8194 7.01082 11.7974 7.00072 13.8434C6.98482 16.7054 8.86682 22.0194 17.9288 31.0794C26.9488 40.0954 32.2548 41.9994 35.1228 41.9994H35.1648C37.2108 41.9894 38.1868 40.9854 38.6588 40.5034C38.8028 40.3554 38.9188 40.2474 39.0008 40.1794C40.9928 38.1754 42.0128 36.6834 42.0029 35.7274C41.9888 34.7514 40.7748 33.5974 39.0968 32.0014C38.5628 31.4934 37.9828 30.9414 37.3708 30.3294C35.7848 28.7474 34.9988 29.0174 33.2708 29.6254C30.8808 30.4634 27.6008 31.6034 22.5048 26.5054C17.4008 21.4054 18.5428 18.1294 19.3788 15.7394C19.9828 14.0114 20.2588 13.2234 18.6708 11.6354C18.0488 11.0154 17.4908 10.4274 16.9768 9.88741C15.3908 8.21941 14.2468 7.01341 13.2768 6.99941H13.2608C12.3028 6.99941 10.8148 8.02341 8.70882 10.1294C8.71482 10.1234 8.71682 10.1214 8.71882 10.1214ZM35.1248 44.9994C30.1408 44.9994 23.6428 41.0314 15.8088 33.2014C7.94482 25.3394 3.97082 18.8214 4.00065 13.8274C4.01882 10.5274 5.74882 8.83741 6.39882 8.20341C6.43282 8.16141 6.54882 8.04741 6.58882 8.00741C9.45682 5.13741 11.3908 3.97741 13.3148 3.99911C15.5488 4.02941 17.1388 5.70141 19.1508 7.81941C19.6488 8.34341 20.1888 8.91341 20.7908 9.51341C23.7108 12.4334 22.8788 14.8154 22.2108 16.7274C21.4828 18.8134 20.8528 20.6134 24.6248 24.3854C28.4008 28.1574 30.2008 27.5274 32.2788 26.7934C34.1928 26.1254 36.5688 25.2894 39.4928 28.2094C40.0848 28.8014 40.6468 29.3354 41.1648 29.8294C43.2928 31.8514 44.9728 33.4494 45.0012 35.6894C45.0248 37.5994 43.8648 39.5454 41.0008 42.4114L39.7328 41.5514L40.8048 42.5994C40.1708 43.2494 38.4828 44.9814 35.1808 44.9994H35.1248Z" fill="black"/>
</svg>
