<svg width="48" height="48" viewBox="0 0 48 48" fill="none" xmlns="http://www.w3.org/2000/svg">
<path d="M30.6347 6.70912C31.802 7.17373 32.6274 8.01118 33.3673 9.23891L33.6111 9.66264L34.5155 11.3969L34.5453 11.4454L34.5723 11.4875L34.6491 11.5925C35.0612 12.0415 35.7508 12.3128 36.206 12.3128C40.3755 12.3128 43.7811 15.5873 43.9899 19.7039L44 20.1048V31.6948C44 37.0388 39.7796 41.3998 34.4911 41.6256L34.06 41.6348H13.94C8.59468 41.6348 4.23494 37.415 4.00918 32.1259L4 31.6948V20.1048C4 15.802 7.48996 12.3128 11.794 12.3128C12.2475 12.3128 12.9382 12.0411 13.3509 11.5925L13.3651 11.5758L13.3829 11.5525L13.4857 11.3947L14.3876 9.66319C15.1915 8.20214 16.0661 7.22544 17.3638 6.70893C19.7418 5.76337 28.2586 5.76337 30.6347 6.70912ZM18.4727 9.49645C18.0299 9.67269 17.629 10.0806 17.2012 10.7878L17.016 11.1094L16.2463 12.5976L16.0569 12.9405C15.8987 13.2035 15.7405 13.4256 15.5599 13.6224C14.6391 14.6233 13.3169 15.2014 12.1416 15.2982L11.794 15.3128L11.4658 15.3238C9.07995 15.4852 7.17242 17.3922 7.01106 19.7768L7 20.1048V31.6948C7 35.3994 9.90348 38.4268 13.5592 38.6245L13.94 38.6348H34.06C37.7639 38.6348 40.792 35.7301 40.9897 32.0754L41 31.6948V20.1048C41 17.5692 39.0285 15.4925 36.5342 15.3238L36.206 15.3128L35.8578 15.2982C34.6807 15.2014 33.3586 14.6231 32.4389 13.621C32.2606 13.4268 32.1033 13.2064 31.9461 12.9455L31.9083 12.8809L31.8633 12.8006L31.6311 12.3651L30.9833 11.1099C30.5459 10.3157 30.1453 9.83034 29.7128 9.58641L29.5253 9.49645L29.2866 9.41712C27.2283 8.83535 20.0688 8.86179 18.4727 9.49645ZM23.9994 18.3982C28.3398 18.3982 31.8574 21.9158 31.8574 26.2562C31.8574 30.5966 28.3398 34.1142 23.9994 34.1142C19.659 34.1142 16.1414 30.5966 16.1414 26.2562C16.1414 21.9158 19.659 18.3982 23.9994 18.3982ZM23.9994 21.3982C21.3158 21.3982 19.1414 23.5726 19.1414 26.2562C19.1414 28.9398 21.3158 31.1142 23.9994 31.1142C26.683 31.1142 28.8574 28.9398 28.8574 26.2562C28.8574 23.5726 26.683 21.3982 23.9994 21.3982ZM35.0086 17.0002C36.1132 17.0002 37.0086 17.8956 37.0086 19.0002C37.0086 20.0259 36.2365 20.8712 35.2418 20.9867L35.0086 21.0002C33.886 21.0002 32.9906 20.1048 32.9906 19.0002C32.9906 17.9745 33.7627 17.1292 34.7574 17.0136L35.0086 17.0002Z" fill="black"/>
</svg>
