<svg width="48" height="48" viewBox="0 0 48 48" fill="none" xmlns="http://www.w3.org/2000/svg">
<path fill-rule="evenodd" clip-rule="evenodd" d="M23.4969 2.00061C29.2429 2.00061 34.6429 4.23461 38.6989 8.29261C47.0829 16.6766 47.0829 30.3166 38.6989 38.7006C34.5889 42.8126 29.0549 44.9886 23.4489 44.9886C20.3929 44.9886 17.3169 44.3426 14.4389 43.0106C13.5909 42.6706 12.7969 42.3506 12.2269 42.3506C11.5709 42.3546 10.6889 42.6586 9.83687 42.9526C8.08887 43.5526 5.91287 44.3006 4.30287 42.6966C2.69887 41.0906 3.43887 38.9206 4.03487 37.1746C4.32887 36.3146 4.63087 35.4266 4.63087 34.7546C4.63087 34.2026 4.36487 33.4986 3.95687 32.4846C0.210874 24.3946 1.94287 14.6446 8.29687 8.29461C12.3529 4.23661 17.7509 2.00061 23.4969 2.00061ZM23.4989 5.00061C18.5529 5.00061 13.9069 6.92461 10.4169 10.4166C4.94887 15.8806 3.46087 24.2706 6.71087 31.2966C7.17887 32.4546 7.63087 33.5826 7.63087 34.7546C7.63087 35.9246 7.22887 37.1026 6.87487 38.1426C6.58287 38.9986 6.14087 40.2906 6.42487 40.5746C6.70287 40.8626 8.00287 40.4086 8.86087 40.1146C9.89087 39.7626 11.0589 39.3586 12.2169 39.3506C13.3769 39.3506 14.4709 39.7906 15.6289 40.2566C22.7229 43.5366 31.1129 42.0446 36.5789 36.5806C43.7909 29.3646 43.7909 17.6266 36.5789 10.4146C33.0869 6.92261 28.4429 5.00061 23.4989 5.00061ZM31.3927 22.326C32.4967 22.326 33.3927 23.22 33.3927 24.326C33.3927 25.432 32.4967 26.326 31.3927 26.326C30.2887 26.326 29.3847 25.432 29.3847 24.326C29.3847 23.22 30.2707 22.326 31.3747 22.326H31.3927ZM23.3751 22.326C24.4791 22.326 25.3751 23.22 25.3751 24.326C25.3751 25.432 24.4791 26.326 23.3751 26.326C22.2711 26.326 21.3671 25.432 21.3671 24.326C21.3671 23.22 22.2511 22.326 23.3571 22.326H23.3751ZM15.3567 22.326C16.4607 22.326 17.3567 23.22 17.3567 24.326C17.3567 25.432 16.4607 26.326 15.3567 26.326C14.2527 26.326 13.3487 25.432 13.3487 24.326C13.3487 23.22 14.2347 22.326 15.3387 22.326H15.3567Z" fill="black"/>
</svg>
