<svg width="48" height="48" viewBox="0 0 48 48" fill="none" xmlns="http://www.w3.org/2000/svg">
<path fill-rule="evenodd" clip-rule="evenodd" d="M32.668 4C39.446 4 44 8.756 44 15.832V32.168C44 39.244 39.446 44 32.666 44H15.33C8.552 44 4 39.244 4 32.168V15.832C4 8.756 8.552 4 15.33 4H32.668ZM32.668 7H15.33C10.27 7 7 10.466 7 15.832V32.168C7 37.534 10.27 41 15.33 41H32.666C37.728 41 41 37.534 41 32.168V15.832C41 10.466 37.728 7 32.668 7ZM20.261 18.1252L23.996 21.86L27.729 18.1294C28.315 17.5434 29.263 17.5434 29.849 18.1294C30.435 18.7154 30.435 19.6634 29.849 20.2494L26.116 23.98L29.853 27.7192C30.439 28.3052 30.439 29.2532 29.853 29.8392C29.561 30.1332 29.175 30.2792 28.793 30.2792C28.409 30.2792 28.025 30.1332 27.733 29.8392L23.996 26.1L20.265 29.8334C19.973 30.1274 19.589 30.2734 19.205 30.2734C18.821 30.2734 18.437 30.1274 18.145 29.8334C17.559 29.2474 17.559 28.2994 18.145 27.7134L21.876 23.98L18.141 20.2452C17.555 19.6592 17.555 18.7112 18.141 18.1252C18.729 17.5392 19.677 17.5392 20.261 18.1252Z" fill="black"/>
</svg>
