<svg width="48" height="48" viewBox="0 0 48 48" fill="none" xmlns="http://www.w3.org/2000/svg">
<path d="M23.9984 20.6293L18.0656 14.698C17.138 13.7673 15.6321 13.7673 14.6981 14.698C13.7673 15.6286 13.7673 17.1342 14.6981 18.0648L20.6309 23.9961L14.7045 29.9252C13.7736 30.8558 13.7736 32.3614 14.7045 33.292C15.1683 33.7589 15.7783 33.9908 16.3882 33.9908C16.9982 33.9908 17.6081 33.7589 18.072 33.292L23.9984 27.3629L29.9344 33.3012C30.3982 33.7681 31.0082 34 31.6181 34C32.2249 34 32.8381 33.7681 33.3019 33.3012C34.2327 32.3706 34.2327 30.8651 33.3019 29.9344L27.3659 23.9961L33.2955 18.0715C34.2264 17.1408 34.2264 15.6353 33.2955 14.7046C32.3647 13.774 30.8589 13.774 29.928 14.7046L23.9984 20.6293Z" fill="black"/>
</svg>
