<svg width="48" height="48" viewBox="0 0 48 48" fill="none" xmlns="http://www.w3.org/2000/svg">
<path fill-rule="evenodd" clip-rule="evenodd" d="M34.6511 12C40.2429 12 44 15.9237 44 21.7614V35.2386C44 41.0763 40.2429 45 34.6494 45H20.3473C14.7554 45 11 41.0763 11 35.2386V21.7614C11 15.9237 14.7554 12 20.3473 12H34.6511ZM34.6511 14.475H20.3473C16.1728 14.475 13.475 17.3344 13.475 21.7614V35.2386C13.475 39.6655 16.1728 42.525 20.3473 42.525H34.6494C38.8256 42.525 41.525 39.6655 41.525 35.2386V21.7614C41.525 17.3344 38.8256 14.475 34.6511 14.475Z" fill="black"/>
<path d="M37.9242 10.2391C36.4998 6.38517 33.0835 4 28.5519 4H13.0985C7.05722 4 3 8.23904 3 14.5459V29.1063C3 34.3135 5.76576 38.1111 10.1304 39.2771H11.5V36.4581H10.1304C7.35142 35.3885 5.67391 32.7347 5.67391 29.1063V14.5459C5.67391 9.76317 8.58848 6.67391 13.0985 6.67391H28.5519C31.4978 6.67391 33.7638 7.99198 34.9811 10.2391V12.5L38 13L37.9242 10.2391Z" fill="black"/>
</svg>
