<svg width="48" height="48" viewBox="0 0 48 48" fill="none" xmlns="http://www.w3.org/2000/svg">
<path fill-rule="evenodd" clip-rule="evenodd" d="M24.0275 6C26.0675 6 27.8935 7.058 28.9055 8.83L43.2775 33.958C44.2835 35.716 44.2775 37.814 43.2595 39.568C42.2415 41.324 40.4235 42.372 38.3975 42.372H9.63154C7.60354 42.372 5.78554 41.324 4.76754 39.568C3.74954 37.814 3.74354 35.716 4.74954 33.958L19.1495 8.826C20.1615 7.056 21.9835 6 24.0255 6H24.0275ZM24.0255 9C23.0735 9 22.2255 9.492 21.7495 10.318L7.35354 35.448C6.88554 36.268 6.88954 37.246 7.36354 38.064C7.83754 38.882 8.68554 39.372 9.63154 39.372H38.3975C39.3415 39.372 40.1895 38.882 40.6635 38.064C41.1395 37.246 41.1435 36.268 40.6715 35.448L26.3015 10.318C25.8275 9.492 24.9795 9 24.0255 9ZM24.0119 30.998C25.1179 30.998 26.0119 31.892 26.0119 32.998C26.0119 34.104 25.1179 34.998 24.0119 34.998C22.9059 34.998 22.0019 34.104 22.0019 32.998C22.0019 31.892 22.8879 30.998 23.9919 30.998H24.0119ZM24.0079 19.128C24.8359 19.128 25.5079 19.8 25.5079 20.628V26.828C25.5079 27.656 24.8359 28.328 24.0079 28.328C23.1799 28.328 22.5079 27.656 22.5079 26.828V20.628C22.5079 19.8 23.1799 19.128 24.0079 19.128Z" fill="black"/>
</svg>
