<svg width="48" height="48" viewBox="0 0 48 48" fill="none" xmlns="http://www.w3.org/2000/svg">
<path fill-rule="evenodd" clip-rule="evenodd" d="M28.2474 5.7509L29.7094 7.2129C30.2754 7.7749 31.0314 8.08689 31.8354 8.08689H33.8914C37.2134 8.08689 39.9154 10.7889 39.9154 14.1109V16.1649C39.9154 16.9669 40.2274 17.7249 40.7934 18.2949L42.2294 19.7329C43.3674 20.8629 43.9994 22.3729 44.0055 23.9829C44.0114 25.5929 43.3894 27.1069 42.2554 28.2489L40.7894 29.7109C40.2274 30.2769 39.9154 31.0309 39.9154 31.8349V33.8929C39.9154 37.2129 37.2134 39.9149 33.8934 39.9149H31.8314C31.0394 39.9149 30.2654 40.2349 29.7034 40.7929L28.2674 42.2289C27.0934 43.4109 25.5454 44.0029 23.9974 44.0029C22.4634 44.0029 20.9294 43.4229 19.7554 42.2589C19.7394 42.2429 19.7234 42.2269 19.7074 42.2089L18.2874 40.7909C17.7214 40.2289 16.9654 39.9169 16.1614 39.9149H14.1094C10.7874 39.9149 8.08744 37.2129 8.08744 33.8929V31.8309C8.08744 31.0269 7.77344 30.2729 7.20944 29.7049L5.77144 28.2689C3.43544 25.9449 3.40744 22.1609 5.70144 19.8009L5.75544 19.7469L7.21144 18.2869C7.77344 17.7209 8.08744 16.9629 8.08744 16.1609V14.1109C8.08744 10.7909 10.7874 8.08889 14.1074 8.08689H16.1674C16.9694 8.08689 17.7254 7.7729 18.2994 7.2069L19.7294 5.7729C22.0674 3.4189 25.8894 3.4069 28.2474 5.7509ZM21.8554 7.8909L20.4174 9.3329C19.2694 10.4669 17.7634 11.0869 16.1674 11.0869H14.1094C12.4434 11.0889 11.0874 12.4449 11.0874 14.1109V16.1609C11.0874 17.7629 10.4654 19.2689 9.33744 20.4049L7.91744 21.8269C7.90344 21.8429 7.88944 21.8549 7.87544 21.8689C6.70144 23.0509 6.70744 24.9689 7.88944 26.1429L9.33344 27.5869C10.4654 28.7229 11.0874 30.2289 11.0874 31.8309V33.8929C11.0874 35.5589 12.4414 36.9149 14.1094 36.9149H16.1634C17.7674 36.9169 19.2734 37.5389 20.4074 38.6689L21.8494 40.1069L21.8894 40.1509C23.0694 41.3029 24.9694 41.2889 26.1414 40.1109L27.5854 38.6709C28.7054 37.5529 30.2534 36.9149 31.8314 36.9149H33.8914C35.5594 36.9149 36.9154 35.5589 36.9154 33.8929V31.8349C36.9154 30.2329 37.5354 28.7269 38.6674 27.5929L40.1074 26.1509C40.6934 25.5629 41.0074 24.8009 41.0055 23.9929C41.0034 23.1869 40.6854 22.4289 40.1114 21.8569L38.6694 20.4129C37.5354 19.2709 36.9154 17.7669 36.9154 16.1649V14.1109C36.9154 12.4429 35.5594 11.0869 33.8914 11.0869H31.8354C30.2334 11.0869 28.7274 10.4649 27.5934 9.3389L26.1494 7.89289C24.9474 6.70289 23.0294 6.7089 21.8554 7.8909ZM29.0066 26.9983C30.1126 26.9983 31.0066 27.8923 31.0066 28.9983C31.0066 30.1043 30.1126 30.9983 29.0066 30.9983C27.9006 30.9983 26.9966 30.1043 26.9966 28.9983C26.9966 27.8923 27.8826 26.9983 28.9886 26.9983H29.0066ZM30.2022 17.8009C30.7882 18.3869 30.7882 19.3369 30.2022 19.9229L19.9202 30.2029C19.6282 30.4969 19.2442 30.6429 18.8602 30.6429C18.4762 30.6429 18.0922 30.4969 17.8002 30.2029C17.2142 29.6169 17.2142 28.6689 17.8002 28.0829L28.0802 17.8009C28.6662 17.2149 29.6162 17.2149 30.2022 17.8009ZM19.0066 16.9983C20.1126 16.9983 21.0066 17.8923 21.0066 18.9983C21.0066 20.1043 20.1126 20.9983 19.0066 20.9983C17.9006 20.9983 16.9966 20.1043 16.9966 18.9983C16.9966 17.8923 17.8826 16.9983 18.9886 16.9983H19.0066Z" fill="black"/>
</svg>
