<svg width="48" height="48" viewBox="0 0 48 48" fill="none" xmlns="http://www.w3.org/2000/svg">
<path fill-rule="evenodd" clip-rule="evenodd" d="M31.8175 4C38.1055 4 42.3295 8.306 42.3295 14.714V33.106C42.3295 39.57 38.2355 43.774 31.8995 43.814L16.5135 43.82C10.2255 43.82 5.99951 39.514 5.99951 33.106V14.714C5.99951 8.248 10.0935 4.046 16.4295 4.008L31.8155 4H31.8175ZM31.8175 7L16.4395 7.008C11.7835 7.036 8.99951 9.916 8.99951 14.714V33.106C8.99951 37.936 11.8095 40.82 16.5115 40.82L31.8895 40.814C36.5455 40.786 39.3295 37.902 39.3295 33.106V14.714C39.3295 9.884 36.5215 7 31.8175 7ZM31.4317 30.9474C32.2597 30.9474 32.9317 31.6194 32.9317 32.4474C32.9317 33.2754 32.2597 33.9474 31.4317 33.9474H16.9917C16.1637 33.9474 15.4917 33.2754 15.4917 32.4474C15.4917 31.6194 16.1637 30.9474 16.9917 30.9474H31.4317ZM31.4317 22.5744C32.2597 22.5744 32.9317 23.2464 32.9317 24.0744C32.9317 24.9024 32.2597 25.5744 31.4317 25.5744H16.9917C16.1637 25.5744 15.4917 24.9024 15.4917 24.0744C15.4917 23.2464 16.1637 22.5744 16.9917 22.5744H31.4317ZM22.5011 14.2208C23.3291 14.2208 24.0011 14.8928 24.0011 15.7208C24.0011 16.5488 23.3291 17.2208 22.5011 17.2208H16.9911C16.1631 17.2208 15.4911 16.5488 15.4911 15.7208C15.4911 14.8928 16.1631 14.2208 16.9911 14.2208H22.5011Z" fill="black"/>
</svg>
