<svg width="48" height="48" viewBox="0 0 48 48" fill="none" xmlns="http://www.w3.org/2000/svg">
<path fill-rule="evenodd" clip-rule="evenodd" d="M14.734 15.4651C15.562 15.4651 16.234 16.1371 16.234 16.9651C16.234 17.7931 15.562 18.4651 14.734 18.4651H12.852C9.624 18.4651 7 21.0871 7 24.3131V34.0831C7 37.3211 9.632 39.9531 12.87 39.9531H35.15C38.374 39.9531 41 37.3271 41 34.1031V24.3351C41 21.0971 38.366 18.4651 35.132 18.4651H33.268C32.44 18.4651 31.768 17.7931 31.768 16.9651C31.768 16.1371 32.44 15.4651 33.268 15.4651H35.132C40.022 15.4651 44 19.4451 44 24.3351V34.1031C44 38.9831 40.028 42.9531 35.15 42.9531H12.87C7.98 42.9531 4 38.9751 4 34.0831V24.3131C4 19.4331 7.97 15.4651 12.852 15.4651H14.734ZM24.0016 6.00009C24.8296 6.00009 25.5016 6.67209 25.5016 7.50009L25.5 27.9521L28.7716 24.6681C29.3556 24.0801 30.3036 24.0801 30.8916 24.6641C31.4776 25.2481 31.4796 26.1981 30.8956 26.7861L25.0771 32.6274C25.0203 32.6858 24.9587 32.7397 24.8931 32.7883L25.0636 32.6401C24.9992 32.7054 24.9293 32.7641 24.855 32.8157C24.8096 32.847 24.7635 32.8754 24.7159 32.9012C24.6929 32.9137 24.6688 32.926 24.6444 32.9376C24.6008 32.9583 24.556 32.977 24.5102 32.9936C24.4872 33.0017 24.4643 33.0093 24.4412 33.0164C24.3848 33.0338 24.3269 33.0479 24.2678 33.0585C24.2545 33.0607 24.2423 33.0627 24.2302 33.0646C24.1825 33.0721 24.1327 33.0773 24.0823 33.08C24.055 33.0814 24.0284 33.0821 24.0016 33.0821L23.922 33.0761L23.7981 33.0684C23.7893 33.0672 23.7805 33.0659 23.7717 33.0646L24.0016 33.0821C23.9122 33.0821 23.8236 33.0741 23.7366 33.0586C23.6764 33.0479 23.6187 33.0339 23.5623 33.0166C23.5397 33.0095 23.5176 33.0022 23.4957 32.9944C23.4497 32.9781 23.4043 32.9592 23.3601 32.9382C23.3333 32.9255 23.3066 32.9119 23.2803 32.8975C23.2433 32.8771 23.2077 32.8555 23.1731 32.8325C23.1494 32.8169 23.1257 32.8001 23.1025 32.7826C23.0453 32.7397 22.9914 32.6929 22.9411 32.6426L22.9396 32.6401L17.1076 26.7861C16.5236 26.1981 16.5256 25.2481 17.1116 24.6641C17.6996 24.0801 18.6476 24.0801 19.2316 24.6681L22.5 27.9521L22.5016 7.50009C22.5016 6.67209 23.1736 6.00009 24.0016 6.00009Z" fill="black"/>
</svg>
