<svg width="48" height="48" viewBox="0 0 48 48" fill="none" xmlns="http://www.w3.org/2000/svg">
<path fill-rule="evenodd" clip-rule="evenodd" d="M22.984 4.07341C23.812 4.07341 24.484 4.74541 24.484 5.57341C24.484 6.40141 23.812 7.07341 22.984 7.07341H15.506C10.338 7.07341 7 10.6134 7 16.0914V32.7194C7 38.1974 10.338 41.7374 15.506 41.7374H33.154C38.322 41.7374 41.662 38.1974 41.662 32.7194V24.6634C41.662 23.8354 42.334 23.1634 43.162 23.1634C43.99 23.1634 44.662 23.8354 44.662 24.6634V32.7194C44.662 39.9074 40.036 44.7374 33.154 44.7374H15.506C8.624 44.7374 4 39.9074 4 32.7194V16.0914C4 8.90341 8.624 4.07341 15.506 4.07341H22.984ZM40.4032 5.83061L42.8372 8.26461C44.0232 9.44861 44.6752 11.0226 44.6732 12.6986C44.6732 14.3746 44.0212 15.9466 42.8372 17.1286L27.8192 32.1466C26.7172 33.2486 25.2492 33.8566 23.6892 33.8566H16.1972C15.7932 33.8566 15.4052 33.6926 15.1232 33.4026C14.8412 33.1146 14.6872 32.7246 14.6972 32.3186L14.8852 24.7606C14.9232 23.2566 15.5292 21.8426 16.5932 20.7766H16.5952L31.5412 5.83061C33.9852 3.39061 37.9592 3.39061 40.4032 5.83061ZM30.31 11.3026L18.7152 22.8986C18.1972 23.4166 17.9032 24.1046 17.8852 24.8346L17.7352 30.8566H23.6892C24.4492 30.8566 25.1612 30.5626 25.6992 30.0246L37.364 18.3566L30.31 11.3026ZM33.6612 7.95261L32.43 9.18061L39.484 16.2366L40.7172 15.0066C41.3332 14.3906 41.6732 13.5706 41.6732 12.6986C41.6732 11.8246 41.3332 11.0026 40.7172 10.3866L38.2832 7.95261C37.0092 6.68261 34.9372 6.68261 33.6612 7.95261Z" fill="black"/>
</svg>
