<svg width="48" height="48" viewBox="0 0 48 48" fill="none" xmlns="http://www.w3.org/2000/svg">
<path fill-rule="evenodd" clip-rule="evenodd" d="M34.7758 27.416C38.2078 27.416 40.9998 30.194 40.9998 33.608C40.9998 37.022 38.2078 39.8 34.7758 39.8C31.3418 39.8 28.5478 37.022 28.5478 33.608C28.5478 30.194 31.3418 27.416 34.7758 27.416ZM34.7758 30.416C32.9958 30.416 31.5478 31.848 31.5478 33.608C31.5478 35.37 32.9958 36.8 34.7758 36.8C36.5538 36.8 37.9998 35.37 37.9998 33.608C37.9998 31.848 36.5538 30.416 34.7758 30.416ZM20.1606 32.1856C20.9886 32.1856 21.6606 32.8576 21.6606 33.6856C21.6606 34.5136 20.9886 35.1856 20.1606 35.1856H7.5586C6.7306 35.1856 6.0586 34.5136 6.0586 33.6856C6.0586 32.8576 6.7306 32.1856 7.5586 32.1856H20.1606ZM12.226 8C15.66 8 18.452 10.78 18.452 14.194C18.452 17.608 15.66 20.384 12.226 20.384C8.794 20.384 6 17.608 6 14.194C6 10.78 8.794 8 12.226 8ZM12.226 11C10.448 11 9 12.432 9 14.194C9 15.954 10.448 17.384 12.226 17.384C14.006 17.384 15.452 15.954 15.452 14.194C15.452 12.432 14.006 11 12.226 11ZM38.3822 12.8008C39.2102 12.8008 39.8822 13.4728 39.8822 14.3008C39.8822 15.1288 39.2102 15.8008 38.3822 15.8008H25.7822C24.9542 15.8008 24.2822 15.1288 24.2822 14.3008C24.2822 13.4728 24.9542 12.8008 25.7822 12.8008H38.3822Z" fill="black"/>
</svg>
