<svg width="48" height="48" viewBox="0 0 48 48" fill="none" xmlns="http://www.w3.org/2000/svg">
<path fill-rule="evenodd" clip-rule="evenodd" d="M17.547 23.1974C17.583 23.2294 17.617 23.2594 17.651 23.2954C19.809 25.5074 20.999 28.4374 20.999 31.5474V39.5154L25.471 37.0794C25.823 36.8874 26.041 36.5114 26.041 36.0974V31.5234C26.041 28.4254 27.219 25.5054 29.357 23.3054L39.031 13.0154C39.657 12.3494 40.001 11.4754 40.001 10.5534V8.68139C40.001 7.75339 39.269 6.99939 38.373 6.99939H8.63098C7.73298 6.99939 7.00098 7.75339 7.00098 8.68139V10.5534C7.00098 11.4754 7.34498 12.3494 7.97098 13.0134L17.547 23.1974ZM20.293 43.0014C19.889 43.0014 19.489 42.8934 19.125 42.6774C18.421 42.2574 17.999 41.5154 17.999 40.6914V31.5474C17.999 29.2774 17.153 27.1394 15.611 25.5014C15.565 25.4634 15.519 25.4214 15.479 25.3774L5.78698 15.0714C4.63498 13.8474 4.00098 12.2414 4.00098 10.5534V8.68139C4.00098 6.09939 6.07898 3.99939 8.63098 3.99939H38.373C40.923 3.99939 43.001 6.09939 43.001 8.68139V10.5534C43.001 12.2394 42.367 13.8434 41.219 15.0694L31.525 25.3774C29.919 27.0334 29.041 29.2114 29.041 31.5234V36.0974C29.041 37.6094 28.223 38.9934 26.907 39.7134L21.385 42.7214C21.041 42.9074 20.667 43.0014 20.293 43.0014Z" fill="black"/>
</svg>
