<svg width="48" height="48" viewBox="0 0 48 48" fill="none" xmlns="http://www.w3.org/2000/svg">
<path fill-rule="evenodd" clip-rule="evenodd" d="M19.285 4C21.187 4.002 22.999 4.91 24.135 6.428L25.957 8.852C26.535 9.62 27.453 10.078 28.413 10.08H34.071C41.795 10.08 45.393 14.038 45.393 22.536L45.337 32.47C45.335 40.406 40.403 45.338 32.463 45.338H16.899C8.94302 45.338 3.99902 40.404 3.99902 32.464V16.866C3.99902 8.328 7.79702 4 15.285 4H19.285ZM19.283 7H15.285C9.47702 7 6.99902 9.952 6.99902 16.866V32.464C6.99902 38.832 10.515 42.338 16.899 42.338H32.463C38.831 42.338 42.337 38.832 42.337 32.464V32.458L42.393 22.528C42.393 15.73 40.061 13.08 34.071 13.08H28.411C26.513 13.078 24.701 12.172 23.561 10.656L21.735 8.228C21.161 7.458 20.243 7.002 19.283 7ZM33.4314 28.4256C34.2594 28.4256 34.9314 29.0976 34.9314 29.9256C34.9314 30.7536 34.2594 31.4256 33.4314 31.4256H15.9614C15.1334 31.4256 14.4614 30.7536 14.4614 29.9256C14.4614 29.0976 15.1334 28.4256 15.9614 28.4256H33.4314Z" fill="black"/>
</svg>
