<svg width="48" height="48" viewBox="0 0 48 48" fill="none" xmlns="http://www.w3.org/2000/svg">
<path fill-rule="evenodd" clip-rule="evenodd" d="M15.6432 1.99991C16.4732 1.99991 17.1432 2.67191 17.1432 3.49991C17.1432 4.15191 17.6972 4.68191 18.3792 4.68191H20.4932C23.6392 4.69191 26.2092 7.21991 26.2232 10.3179L26.2233 10.7539C28.2652 10.7645 30.32 10.7866 32.38 10.8201C39.682 10.8201 45 16.0381 45 23.2241V32.5241C45 39.7041 39.69 44.9201 32.368 44.9261C29.432 44.9741 26.472 45.0001 23.508 45.0001C20.542 45.0001 17.572 44.9741 14.62 44.9261C7.318 44.9261 2 39.7081 2 32.5241V23.2241C2 16.0381 7.318 10.8201 14.646 10.8201C17.4554 10.7721 20.3218 10.7476 23.2224 10.7466L23.2232 10.3259C23.2172 8.87791 21.9892 7.68791 20.4872 7.68191H18.3792C16.0452 7.68191 14.1432 5.80591 14.1432 3.49991C14.1432 2.67191 14.8152 1.99991 15.6432 1.99991ZM23.402 13.7461C20.45 13.7461 17.534 13.7721 14.67 13.8201C9.056 13.8201 5 17.7761 5 23.2241V32.5241C5 37.9701 9.056 41.9261 14.646 41.9261C20.54 42.0241 26.482 42.0241 32.33 41.9261H32.356C37.944 41.9261 42 37.9701 42 32.5241V23.2241C42 17.7761 37.944 13.8201 32.356 13.8201C29.348 13.7721 26.358 13.7461 23.402 13.7461ZM17.1958 22.6293C18.0238 22.6293 18.6958 23.3013 18.6958 24.1293L18.694 26.3719L21.0172 26.3731C21.8452 26.3731 22.5172 27.0451 22.5172 27.8731C22.5172 28.7011 21.8452 29.3731 21.0172 29.3731L18.694 29.3719L18.6958 31.6193C18.6958 32.4473 18.0238 33.1193 17.1958 33.1193C16.3678 33.1193 15.6958 32.4473 15.6958 31.6193L15.694 29.3719L13.3752 29.3731C12.5472 29.3731 11.8752 28.7011 11.8752 27.8731C11.8752 27.0451 12.5472 26.3731 13.3752 26.3731L15.694 26.3719L15.6958 24.1293C15.6958 23.3013 16.3678 22.6293 17.1958 22.6293ZM33.859 30.0059C34.687 30.0059 35.359 30.6779 35.359 31.5059C35.359 32.3339 34.687 33.0059 33.859 33.0059H33.645C32.817 33.0059 32.145 32.3339 32.145 31.5059C32.145 30.6779 32.817 30.0059 33.645 30.0059H33.859ZM30.232 22.8575C31.06 22.8575 31.732 23.5295 31.732 24.3575C31.732 25.1855 31.06 25.8575 30.232 25.8575H30.018C29.19 25.8575 28.518 25.1855 28.518 24.3575C28.518 23.5295 29.19 22.8575 30.018 22.8575H30.232Z" fill="black"/>
</svg>
