<svg width="48" height="48" viewBox="0 0 48 48" fill="none" xmlns="http://www.w3.org/2000/svg">
<path fill-rule="evenodd" clip-rule="evenodd" d="M20.295 10.407C21.161 11.087 21.659 12.101 21.659 13.189C21.659 21.959 21.955 24.319 23.165 25.217C23.959 25.803 25.047 25.797 28.713 25.695C30.417 25.645 32.599 25.581 35.457 25.581C36.597 25.581 37.671 26.069 38.399 26.919C39.075 27.709 39.371 28.741 39.215 29.757C37.879 38.407 30.519 44.689 21.715 44.689C11.947 44.689 4.00098 36.743 4.00098 26.977C4.00098 19.233 9.85698 11.489 17.055 9.71701C18.179 9.44301 19.387 9.699 20.295 10.407ZM17.965 12.607C17.901 12.607 17.837 12.615 17.773 12.631C11.833 14.093 7.00098 20.529 7.00098 26.977C7.00098 35.089 13.601 41.689 21.715 41.689C29.029 41.689 35.141 36.479 36.249 29.299C36.257 29.239 36.285 29.065 36.121 28.871C35.965 28.689 35.717 28.581 35.457 28.581C32.635 28.581 30.481 28.645 28.799 28.693C24.727 28.815 23.043 28.861 21.379 27.627C18.9996 25.8643 18.6868 22.9009 18.6609 14.5851L18.659 13.189C18.659 13.021 18.587 12.881 18.443 12.769C18.309 12.663 18.139 12.607 17.965 12.607ZM40.1018 7.46761C43.6178 10.9816 45.8498 15.5996 45.7858 19.2336C45.7618 20.6516 44.7318 21.8356 43.3398 22.0456C40.6238 22.4556 37.4438 22.5796 34.6298 22.5796C32.0098 22.5796 29.7038 22.4736 28.3778 22.3976C26.7098 22.2996 25.3818 20.9696 25.2858 19.3016C25.1298 16.6576 24.7918 9.93961 25.0318 4.74361C25.0978 3.23361 26.3178 2.03161 27.8098 2.00561C32.0838 1.88161 36.4938 3.86561 40.1018 7.46761ZM28.0658 5.00361H28.0218C27.8018 10.0416 28.1278 16.5496 28.2798 19.1276C28.2878 19.2816 28.3998 19.3936 28.5518 19.4016C30.6078 19.5196 37.6918 19.8476 42.7858 19.0976C42.7978 16.2896 40.8758 12.4816 37.9818 9.58961C35.0138 6.62561 31.5018 5.00361 28.0658 5.00361Z" fill="black"/>
</svg>
