<svg width="48" height="48" viewBox="0 0 48 48" fill="none" xmlns="http://www.w3.org/2000/svg">
<path fill-rule="evenodd" clip-rule="evenodd" d="M27.434 30.5826C29.842 30.5826 31.802 32.5286 31.802 34.9206V41.0726C31.802 41.5866 32.214 41.9986 32.742 42.0106H36.554C39.558 42.0106 42 39.5986 42 36.6346V19.1866C41.986 18.1666 41.5 17.2066 40.666 16.5686L27.48 6.05256C25.71 4.65056 23.234 4.65056 21.458 6.05656L8.362 16.5646C7.496 17.2226 7.01 18.1826 7 19.2206V36.6346C7 39.5986 9.442 42.0106 12.446 42.0106H16.294C16.836 42.0106 17.276 41.5806 17.276 41.0526C17.276 40.9366 17.29 40.8206 17.314 40.7106V34.9206C17.314 32.5426 19.262 30.5986 21.652 30.5826H27.434ZM36.554 45.0106H32.706C30.502 44.9586 28.802 43.2286 28.802 41.0726V34.9206C28.802 34.1826 28.188 33.5826 27.434 33.5826H21.662C20.924 33.5866 20.314 34.1886 20.314 34.9206V41.0526C20.314 41.2026 20.294 41.3466 20.252 41.4826C20.036 43.4626 18.344 45.0106 16.294 45.0106H12.446C7.788 45.0106 4 41.2526 4 36.6346V19.2066C4.02 17.2186 4.936 15.3986 6.518 14.2006L19.588 3.71056C22.466 1.43056 26.476 1.43056 29.348 3.70656L42.512 14.2066C44.058 15.3846 44.974 17.2006 45 19.1646V36.6346C45 41.2526 41.212 45.0106 36.554 45.0106Z" fill="black"/>
</svg>
