<svg width="48" height="48" viewBox="0 0 48 48" fill="none" xmlns="http://www.w3.org/2000/svg">
<path fill-rule="evenodd" clip-rule="evenodd" d="M32.601 4C39.371 4 43.921 8.742 43.921 15.798V32.102C43.921 39.158 39.371 43.9 32.601 43.9H15.301C8.54098 43.9 4.00098 39.158 4.00098 32.102V15.798C4.00098 8.742 8.54098 4 15.301 4H32.601ZM32.601 7H15.301C10.259 7 7.00098 10.454 7.00098 15.798V32.102C7.00098 37.448 10.259 40.9 15.301 40.9H32.601C37.655 40.9 40.921 37.448 40.921 32.102V15.798C40.921 10.454 37.655 7 32.601 7ZM33.879 24.1988C33.8916 24.2091 33.9041 24.2193 33.9301 24.2437L33.9688 24.2806C33.9766 24.2881 33.9852 24.2965 33.9947 24.3058L34.1063 24.4166C34.467 24.7777 35.4639 25.7959 38.435 28.8468C39.013 29.4388 39.003 30.3888 38.409 30.9668C37.817 31.5488 36.865 31.5308 36.287 30.9388C36.287 30.9388 32.189 26.7328 31.897 26.4488C31.587 26.1948 31.089 26.0468 30.599 26.0948C30.101 26.1448 29.653 26.3828 29.335 26.7688C24.687 32.4068 24.631 32.4608 24.555 32.5348C22.839 34.2188 20.069 34.1908 18.383 32.4708C18.383 32.4708 16.523 30.5828 16.491 30.5448C16.029 30.1168 15.205 30.1448 14.711 30.6668L11.651 33.8928C11.355 34.2048 10.959 34.3608 10.563 34.3608C10.191 34.3608 9.82098 34.2248 9.53098 33.9488C8.92898 33.3808 8.90498 32.4288 9.47498 31.8308L12.531 28.6048C14.149 26.8868 16.879 26.8028 18.605 28.4228L20.521 30.3668C21.055 30.9068 21.923 30.9168 22.459 30.3888C22.661 30.1508 27.017 24.8608 27.017 24.8608C27.845 23.8568 29.013 23.2368 30.311 23.1088C31.611 22.9948 32.873 23.3728 33.879 24.1988ZM17.1174 13.2578C19.8814 13.2598 22.1274 15.5078 22.1274 18.2658C22.1274 21.0278 19.8794 23.2758 17.1174 23.2758C14.3554 23.2758 12.1094 21.0278 12.1094 18.2658C12.1094 15.5038 14.3554 13.2578 17.1174 13.2578ZM17.1154 16.2578C16.0094 16.2578 15.1094 17.1578 15.1094 18.2658C15.1094 19.3738 16.0094 20.2758 17.1174 20.2758C18.2254 20.2758 19.1274 19.3738 19.1274 18.2658C19.1274 17.1598 18.2254 16.2598 17.1154 16.2578Z" fill="black"/>
</svg>
