<svg width="48" height="48" viewBox="0 0 48 48" fill="none" xmlns="http://www.w3.org/2000/svg">
<path fill-rule="evenodd" clip-rule="evenodd" d="M24.7498 4.00378C30.5898 4.00378 35.3458 8.75978 35.3458 14.6058L35.3456 17.759C38.896 18.9946 41.45 22.3746 41.45 26.3414V34.9194C41.45 39.9294 37.376 44.0034 32.366 44.0034H17.084C12.074 44.0034 8 39.9294 8 34.9194V26.3414C8 22.3753 10.553 18.9959 14.1024 17.7597L14.1038 14.6058C14.1158 11.7258 15.2298 9.06778 17.2398 7.07578C19.2518 5.08178 21.9078 3.92778 24.7498 4.00378ZM32.366 20.2574H17.084C13.728 20.2574 11 22.9854 11 26.3414V34.9194C11 38.2754 13.728 41.0034 17.084 41.0034H32.366C35.72 41.0034 38.45 38.2754 38.45 34.9194V26.3414C38.45 22.9854 35.72 20.2574 32.366 20.2574ZM24.7246 26.909C25.5526 26.909 26.2246 27.581 26.2246 28.409V32.851C26.2246 33.679 25.5526 34.351 24.7246 34.351C23.8966 34.351 23.2246 33.679 23.2246 32.851V28.409C23.2246 27.581 23.8966 26.909 24.7246 26.909ZM24.7438 7.00378H24.7118C22.6858 7.00378 20.7878 7.78378 19.3538 9.20578C17.9098 10.6338 17.1118 12.5398 17.1038 14.5718L17.102 17.2562H32.344L32.3458 14.6058C32.3458 10.4138 28.9358 7.00378 24.7438 7.00378Z" fill="black"/>
</svg>
