<svg width="48" height="48" viewBox="0 0 48 48" fill="none" xmlns="http://www.w3.org/2000/svg">
<path fill-rule="evenodd" clip-rule="evenodd" d="M34.106 4C38.984 4 42.956 7.97 42.956 12.85V35.128C42.956 40.02 38.974 44 34.084 44H24.314C19.436 44 15.466 40.03 15.466 35.15V33.266C15.466 32.438 16.138 31.766 16.966 31.766C17.794 31.766 18.466 32.438 18.466 33.266V35.15C18.466 38.374 21.09 41 24.314 41H34.084C37.322 41 39.956 38.368 39.956 35.128V12.85C39.956 9.626 37.33 7 34.106 7H24.336C21.1 7 18.466 9.632 18.466 12.868V14.734C18.466 15.562 17.794 16.234 16.966 16.234C16.138 16.234 15.466 15.562 15.466 14.734V12.868C15.466 7.978 19.446 4 24.336 4H34.106ZM26.7846 17.106L32.6425 22.9395C32.69 22.987 32.7344 23.0377 32.7752 23.0912L32.6426 22.938C32.7225 23.0167 32.7924 23.1037 32.8516 23.1969C32.8637 23.2202 32.8773 23.243 32.8904 23.2662C32.9132 23.302 32.9325 23.3401 32.9502 23.3789C32.9601 23.4064 32.9716 23.4338 32.9823 23.4615C32.9994 23.4995 33.0126 23.5386 33.0242 23.5782C33.0309 23.6094 33.039 23.6405 33.046 23.672C33.0569 23.7101 33.0639 23.7485 33.0695 23.7872C33.0695 23.8047 33.0718 23.8232 33.0737 23.8418C33.0818 23.8946 33.0846 23.9472 33.0846 24L33.07 24.158L33.0683 24.2035C33.0678 24.2068 33.0674 24.2102 33.0669 24.2136L33.0846 24C33.0846 24.111 33.0723 24.221 33.0484 24.3278C33.039 24.3595 33.0309 24.3906 33.0219 24.4213C33.0126 24.4614 32.9994 24.5005 32.9846 24.5389C32.9716 24.5662 32.9601 24.5936 32.9479 24.6206C32.9325 24.6599 32.9132 24.698 32.8923 24.7352C32.8773 24.757 32.8637 24.7798 32.8495 24.8022C32.8279 24.8403 32.8026 24.8766 32.7756 24.9117C32.7571 24.9324 32.7399 24.9536 32.7222 24.9744C32.6981 25.005 32.671 25.034 32.6426 25.062L26.7846 30.892C26.4926 31.184 26.1086 31.33 25.7266 31.33C25.3426 31.33 24.9566 31.184 24.6646 30.888C24.0786 30.3 24.0826 29.352 24.6686 28.768L27.95 25.5H7.5C6.672 25.5 6 24.828 6 24C6 23.172 6.672 22.5 7.5 22.5H27.95L24.6686 19.23C24.0826 18.646 24.0786 17.698 24.6646 17.11C25.2506 16.522 26.1986 16.522 26.7846 17.106Z" fill="black"/>
</svg>
