<svg width="48" height="48" viewBox="0 0 48 48" fill="none" xmlns="http://www.w3.org/2000/svg">
<path fill-rule="evenodd" clip-rule="evenodd" d="M22.6165 4C27.5085 4 31.4885 7.98 31.4885 12.872V14.736C31.4885 15.564 30.8165 16.236 29.9885 16.236C29.1605 16.236 28.4885 15.564 28.4885 14.736V12.872C28.4885 9.632 25.8545 7 22.6165 7H12.8665C9.63249 7 7.00049 9.632 7.00049 12.872V35.13C7.00049 38.368 9.63249 41 12.8665 41H22.6385C25.8625 41 28.4885 38.376 28.4885 35.152V33.266C28.4885 32.438 29.1605 31.766 29.9885 31.766C30.8165 31.766 31.4885 32.438 31.4885 33.266V35.152C31.4885 40.032 27.5165 44 22.6385 44H12.8665C7.97849 44 4.00049 40.022 4.00049 35.13V12.872C4.00049 7.98 7.97849 4 12.8665 4H22.6165ZM38.7767 17.108L44.6327 22.938C44.6849 22.9898 44.7317 23.0437 44.7745 23.1008L44.6327 22.938C44.7035 23.0079 44.7666 23.0842 44.8212 23.1656C44.8453 23.2025 44.8685 23.2406 44.89 23.2798C44.9075 23.3105 44.9236 23.3424 44.9384 23.3749C44.9511 23.4036 44.9632 23.4324 44.9744 23.4615C44.9895 23.4995 45.0027 23.5386 45.0143 23.5782C45.023 23.6094 45.031 23.6405 45.0381 23.672C45.047 23.7102 45.054 23.7486 45.0596 23.7874C45.0627 23.8125 45.0658 23.8389 45.0681 23.8655C45.0727 23.9111 45.0747 23.9555 45.0747 24L45.0645 24.124L45.0604 24.2035C45.0599 24.2068 45.0595 24.2102 45.059 24.2136L45.0747 24C45.0747 24.111 45.0624 24.221 45.0385 24.3278C45.031 24.3595 45.023 24.3906 45.014 24.4213C45.0027 24.4614 44.9895 24.5005 44.9747 24.5389C44.9632 24.5676 44.9511 24.5964 44.9381 24.6246C44.9236 24.6576 44.9075 24.6895 44.8903 24.7209C44.8685 24.7594 44.8453 24.7975 44.8205 24.8345C44.8065 24.8564 44.7911 24.8781 44.7751 24.8993C44.7274 24.962 44.6755 25.0209 44.6194 25.0755L38.7767 30.894C38.4847 31.186 38.1007 31.332 37.7187 31.332C37.3347 31.332 36.9487 31.186 36.6567 30.89C36.0727 30.302 36.0747 29.354 36.6607 28.77L39.9405 25.5H19.4921C18.6641 25.5 17.9921 24.828 17.9921 24C17.9921 23.172 18.6641 22.5 19.4921 22.5H39.9445L36.6607 19.232C36.0747 18.648 36.0707 17.7 36.6567 17.112C37.2407 16.524 38.1887 16.524 38.7767 17.108Z" fill="black"/>
</svg>
