<svg width="48" height="48" viewBox="0 0 48 48" fill="none" xmlns="http://www.w3.org/2000/svg">
<path fill-rule="evenodd" clip-rule="evenodd" d="M33.318 4C39.978 4 45 9.434 45 16.64V30.376C45 34.064 43.696 37.396 41.326 39.76C39.2 41.878 36.442 43 33.35 43H13.644C10.558 43 7.802 41.88 5.674 39.76C3.304 37.396 2 34.064 2 30.376V16.64C2 9.434 7.022 4 13.682 4H33.318ZM33.318 7H13.682C8.652 7 5 11.054 5 16.64V30.376C5 33.262 5.992 35.84 7.792 37.634C9.344 39.184 11.37 40 13.65 40H33.318C33.322 39.996 33.338 40 33.35 40C35.632 40 37.656 39.184 39.208 37.634C41.01 35.84 42 33.262 42 30.376V16.64C42 11.054 38.348 7 33.318 7ZM36.47 16.2576C36.992 16.8996 36.894 17.8436 36.252 18.3676L27.364 25.5916C26.24 26.4836 24.896 26.9296 23.554 26.9296C22.216 26.9296 20.882 26.4876 19.766 25.6036L10.796 18.3716C10.15 17.8516 10.05 16.9056 10.568 16.2616C11.09 15.6196 12.034 15.5176 12.678 16.0356L21.64 23.2596C22.766 24.1516 24.352 24.1516 25.486 23.2516L34.358 16.0396C35.002 15.5136 35.946 15.6136 36.47 16.2576Z" fill="black"/>
</svg>
