<svg width="48" height="48" viewBox="0 0 48 48" fill="none" xmlns="http://www.w3.org/2000/svg">
<path fill-rule="evenodd" clip-rule="evenodd" d="M24 4C35.028 4 44 12.972 44 24C44 35.028 35.028 44 24 44C12.972 44 4 35.028 4 24C4 12.972 12.972 4 24 4ZM24 7C14.626 7 7 14.626 7 24C7 33.374 14.626 41 24 41C33.374 41 41 33.374 41 24C41 14.626 33.374 7 24 7ZM31.8964 22.0274C33.0024 22.0274 33.8964 22.9214 33.8964 24.0274C33.8964 25.1334 33.0024 26.0274 31.8964 26.0274C30.7904 26.0274 29.8864 25.1334 29.8864 24.0274C29.8864 22.9214 30.7724 22.0274 31.8764 22.0274H31.8964ZM23.877 22.0274C24.983 22.0274 25.877 22.9214 25.877 24.0274C25.877 25.1334 24.983 26.0274 23.877 26.0274C22.771 26.0274 21.869 25.1334 21.869 24.0274C21.869 22.9214 22.753 22.0274 23.859 22.0274H23.877ZM15.8594 22.0274C16.9654 22.0274 17.8594 22.9214 17.8594 24.0274C17.8594 25.1334 16.9654 26.0274 15.8594 26.0274C14.7534 26.0274 13.8494 25.1334 13.8494 24.0274C13.8494 22.9214 14.7354 22.0274 15.8414 22.0274H15.8594Z" fill="black"/>
</svg>
