<svg width="48" height="48" viewBox="0 0 48 48" fill="none" xmlns="http://www.w3.org/2000/svg">
<path fill-rule="evenodd" clip-rule="evenodd" d="M27.9472 4.00079C28.0333 4.00079 28.1177 4.00806 28.1998 4.022L28.4718 4.02339C28.8798 4.02339 29.2698 4.18939 29.5538 4.48339L39.6858 15.0414C39.9538 15.3194 40.1038 15.6934 40.1038 16.0794V34.6794C40.1118 39.6174 36.0998 43.6794 31.1618 43.7314L14.7978 43.7334C9.85181 43.6474 5.91781 39.5734 6.00181 34.6534V12.9814C6.11581 8.01939 10.2118 4.02339 15.1378 4.02339L27.6946 4.022C27.7768 4.00806 27.8611 4.00079 27.9472 4.00079ZM26.4465 7.02279L15.1438 7.02339C11.8298 7.02339 9.07981 9.70739 9.00181 13.0174V34.6794C8.94381 37.9734 11.5578 40.6774 14.8258 40.7334L15.1218 40.7314H31.1458C34.4298 40.6954 37.1078 37.9814 37.1038 34.6814L37.1025 17.9668L33.0852 17.9688C29.4232 17.9588 26.4472 14.9748 26.4472 11.3188L26.4465 7.02279ZM27.5852 25.9942C28.4132 25.9942 29.0852 26.6662 29.0852 27.4942C29.0852 28.3222 28.4132 28.9942 27.5852 28.9942H17.7872C16.9592 28.9942 16.2872 28.3222 16.2872 27.4942C16.2872 26.6662 16.9592 25.9942 17.7872 25.9942H27.5852ZM29.4465 8.70479L29.4472 11.3188C29.4472 13.3268 31.0812 14.9628 33.0892 14.9688L35.4565 14.9668L29.4465 8.70479Z" fill="black"/>
</svg>
