<svg width="48" height="48" viewBox="0 0 48 48" fill="none" xmlns="http://www.w3.org/2000/svg">
<path fill-rule="evenodd" clip-rule="evenodd" d="M27.9516 4.00061C28.0377 4.00061 28.1221 4.00787 28.2042 4.02182L28.4744 4.02341C28.8824 4.02341 29.2724 4.18941 29.5564 4.48341L39.6884 15.0374C39.9544 15.3154 40.1046 15.6894 40.1046 16.0754V34.4554C40.1364 39.4734 36.2244 43.5514 31.1984 43.7314H14.9184C10.038 43.6265 6.12385 39.6827 6.00317 34.8519L6.00244 12.9814C6.12044 8.01941 10.2164 4.02341 15.1404 4.02341L27.6991 4.02182C27.7812 4.00787 27.8656 4.00061 27.9516 4.00061ZM26.4504 7.02261L15.1464 7.02341C11.8324 7.02341 9.08044 9.70741 9.00244 13.0174V34.4554C8.93044 37.8574 11.6104 40.6574 14.9804 40.7314H31.1464C34.4844 40.6114 37.1264 37.8574 37.1046 34.4654L37.1044 17.9666L33.0876 17.9686C29.4256 17.9586 26.4516 14.9746 26.4516 11.3186L26.4504 7.02261ZM22.2832 18.3184C22.6972 18.3184 23.0722 18.4864 23.3437 18.7579L23.3458 18.7592L28.0378 23.4712C28.6218 24.0592 28.6198 25.0072 28.0338 25.5912C27.4458 26.1752 26.4958 26.1752 25.9118 25.5872L23.7824 23.4486L23.7832 31.9004C23.7832 32.7284 23.1112 33.4004 22.2832 33.4004C21.4552 33.4004 20.7832 32.7284 20.7832 31.9004L20.7824 23.4486L18.6558 25.5872C18.3638 25.8832 17.9778 26.0292 17.5938 26.0292C17.2118 26.0292 16.8278 25.8832 16.5358 25.5912C15.9498 25.0072 15.9458 24.0592 16.5318 23.4712L21.2198 18.7592L21.2867 18.6975C21.3157 18.6718 21.3456 18.6472 21.3765 18.6237L21.2198 18.7592C21.2756 18.7032 21.3357 18.6528 21.3991 18.6079C21.6461 18.4258 21.9522 18.3184 22.2832 18.3184ZM29.4504 8.70461L29.4516 11.3186C29.4516 13.3266 31.0836 14.9626 33.0916 14.9686L35.4604 14.9666L29.4504 8.70461Z" fill="black"/>
</svg>
