<svg width="48" height="48" viewBox="0 0 48 48" fill="none" xmlns="http://www.w3.org/2000/svg">
<path fill-rule="evenodd" clip-rule="evenodd" d="M27.9478 4.00079C28.0339 4.00079 28.1183 4.00806 28.2004 4.022L28.473 4.02339C28.881 4.02339 29.271 4.18939 29.555 4.48339L39.685 15.0414C39.953 15.3194 40.103 15.6934 40.103 16.0794V34.6794C40.113 39.6174 36.101 43.6794 31.161 43.7314L15.143 43.7334H15.085C12.685 43.7334 10.415 42.8034 8.70102 41.1074C6.97302 39.3994 6.01302 37.1194 5.99902 34.6874V12.9814C5.99902 8.04339 10.017 4.02339 14.957 4.02339L27.6952 4.022C27.7774 4.00806 27.8618 4.00079 27.9478 4.00079ZM26.447 7.02279L14.957 7.02339C11.671 7.02339 8.99902 9.69739 8.99902 12.9814V34.6794C9.00902 36.3014 9.65302 37.8294 10.811 38.9754C11.967 40.1174 13.561 40.7734 15.133 40.7334C15.14 40.7334 15.1985 40.7329 15.2568 40.7324L31.145 40.7314C34.429 40.6954 37.109 37.9814 37.103 34.6814L37.103 17.9668L33.0818 17.9688C29.4218 17.9588 26.4478 14.9748 26.4478 11.3188L26.447 7.02279ZM20.2784 21.305L22.685 23.7128L25.0928 21.305C25.6788 20.719 26.6268 20.719 27.2128 21.305C27.7988 21.891 27.7988 22.839 27.2128 23.425L24.805 25.8328L27.2104 28.237C27.7964 28.823 27.7964 29.771 27.2104 30.357C26.9184 30.651 26.5344 30.797 26.1504 30.797C25.7664 30.797 25.3824 30.651 25.0904 30.357L22.685 27.9528L20.2808 30.357C19.9888 30.651 19.6048 30.797 19.2208 30.797C18.8368 30.797 18.4528 30.651 18.1608 30.357C17.5748 29.771 17.5748 28.823 18.1608 28.237L20.565 25.8328L18.1584 23.425C17.5724 22.839 17.5724 21.891 18.1584 21.305C18.7444 20.719 19.6924 20.719 20.2784 21.305ZM29.447 8.70479L29.4478 11.3188C29.4478 13.3268 31.0798 14.9628 33.0858 14.9688L35.457 14.9668L29.447 8.70479Z" fill="black"/>
</svg>
