<svg width="48" height="48" viewBox="0 0 48 48" fill="none" xmlns="http://www.w3.org/2000/svg">
<path fill-rule="evenodd" clip-rule="evenodd" d="M27.9511 4.00061C28.037 4.00061 28.1212 4.00784 28.2032 4.02173L28.4769 4.02341C28.8849 4.02341 29.2749 4.18941 29.5589 4.48341L39.6889 15.0374C39.9569 15.3154 40.1072 15.6894 40.1072 16.0754V34.4074C40.1429 39.4254 36.2349 43.5254 31.2089 43.7294L15.1709 43.7314H14.9529C10.053 43.6207 6.12325 39.6578 6.00353 34.8058L6.00293 12.9814C6.11893 8.01941 10.2169 4.02341 15.1429 4.02341L27.699 4.02173C27.781 4.00784 27.8652 4.00061 27.9511 4.00061ZM26.4509 7.02261L15.1469 7.02341C11.8329 7.02341 9.08093 9.70741 9.00293 13.0174V34.4074C8.92893 37.8334 11.6289 40.6554 15.0209 40.7314H31.1489C34.4869 40.5934 37.1309 37.8194 37.1071 34.4194L37.1069 17.9666L33.0871 17.9686C29.4271 17.9586 26.4511 14.9746 26.4511 11.3186L26.4509 7.02261ZM27.5775 29.2168C28.4055 29.2168 29.0775 29.8888 29.0775 30.7168C29.0775 31.5448 28.4055 32.2168 27.5775 32.2168H16.7775C15.9495 32.2168 15.2775 31.5448 15.2775 30.7168C15.2775 29.8888 15.9495 29.2168 16.7775 29.2168H27.5775ZM23.4877 21.7128C24.3157 21.7128 24.9877 22.3848 24.9877 23.2128C24.9877 24.0408 24.3157 24.7128 23.4877 24.7128H16.7757C15.9477 24.7128 15.2757 24.0408 15.2757 23.2128C15.2757 22.3848 15.9477 21.7128 16.7757 21.7128H23.4877ZM29.4509 8.70461L29.4511 11.3186C29.4511 13.3266 31.0851 14.9626 33.0911 14.9686L35.4629 14.9666L29.4509 8.70461Z" fill="black"/>
</svg>
