<svg width="48" height="48" viewBox="0 0 48 48" fill="none" xmlns="http://www.w3.org/2000/svg">
<path fill-rule="evenodd" clip-rule="evenodd" d="M27.949 4.00079C28.0349 4.00079 28.1191 4.00803 28.2011 4.02191L28.4738 4.02339C28.8818 4.02339 29.2718 4.18939 29.5558 4.48339L39.6878 15.0414C39.9538 15.3194 40.1038 15.6934 40.1038 16.0794V34.6794C40.1118 39.6174 36.0998 43.6794 31.1618 43.7314L14.7998 43.7334C9.85381 43.6474 5.91781 39.5734 6.00181 34.6534V12.9814C6.11581 8.01939 10.2138 4.02339 15.1398 4.02339L27.6969 4.02191C27.7789 4.00803 27.8631 4.00079 27.949 4.00079ZM26.4485 7.02279L15.1458 7.02339C11.8298 7.02339 9.07981 9.70739 9.00181 13.0174V34.6794C8.94381 37.9734 11.5578 40.6774 14.8278 40.7334L15.1218 40.7314H31.1458C34.4298 40.6954 37.1078 37.9814 37.1038 34.6814L37.1025 17.9668L33.087 17.9688C29.425 17.9588 26.449 14.9748 26.449 11.3188L26.4485 7.02279ZM22.6888 19.4286C23.5168 19.4286 24.1888 20.1006 24.1888 20.9286L24.1885 24.3268L27.5872 24.3282C28.4152 24.3282 29.0872 25.0002 29.0872 25.8282C29.0872 26.6562 28.4152 27.3282 27.5872 27.3282L24.1885 27.3268L24.1888 30.7286C24.1888 31.5566 23.5168 32.2286 22.6888 32.2286C21.8608 32.2286 21.1888 31.5566 21.1888 30.7286L21.1885 27.3268L17.7892 27.3282C16.9612 27.3282 16.2892 26.6562 16.2892 25.8282C16.2892 25.0002 16.9612 24.3282 17.7892 24.3282L21.1885 24.3268L21.1888 20.9286C21.1888 20.1006 21.8608 19.4286 22.6888 19.4286ZM29.4485 8.70479L29.449 11.3188C29.449 13.3268 31.083 14.9628 33.091 14.9688L35.4565 14.9668L29.4485 8.70479Z" fill="black"/>
</svg>
