<svg width="48" height="48" viewBox="0 0 48 48" fill="none" xmlns="http://www.w3.org/2000/svg">
<path fill-rule="evenodd" clip-rule="evenodd" d="M27.9516 4.00061C28.0377 4.00061 28.1221 4.00787 28.2042 4.02182L28.4744 4.02341C28.8824 4.02341 29.2724 4.18941 29.5564 4.48341L39.6884 15.0374C39.9544 15.3154 40.1046 15.6894 40.1046 16.0754V34.4554C40.1364 39.4734 36.2244 43.5514 31.1984 43.7314H14.9184C10.038 43.6265 6.12385 39.6827 6.00317 34.8519L6.00244 12.9814C6.12044 8.01941 10.2164 4.02341 15.1404 4.02341L27.6991 4.02182C27.7812 4.00787 27.8656 4.00061 27.9516 4.00061ZM26.4504 7.02261L15.1464 7.02341C11.8324 7.02341 9.08044 9.70741 9.00244 13.0174V34.4554C8.93044 37.8574 11.6104 40.6574 14.9804 40.7314H31.1464C34.4844 40.6114 37.1264 37.8574 37.1046 34.4654L37.1044 17.9666L33.0876 17.9686C29.4256 17.9586 26.4516 14.9746 26.4516 11.3186L26.4504 7.02261ZM22.2852 18.3184C23.1132 18.3184 23.7852 18.9904 23.7852 19.8184L23.7844 28.2626L25.9092 26.1304C26.4932 25.5424 27.4432 25.5424 28.0312 26.1264C28.6172 26.7104 28.6192 27.6604 28.0352 28.2484L23.3972 32.9068C23.2796 33.0367 23.1395 33.1459 22.9832 33.2283C22.9692 33.2326 22.9566 33.2391 22.9439 33.2453C22.8857 33.2768 22.8242 33.3022 22.7608 33.3234C22.7546 33.3226 22.7485 33.3246 22.7425 33.3265C22.5985 33.3755 22.4448 33.4004 22.2852 33.4004C22.1302 33.4004 21.9806 33.3768 21.8399 33.3331C21.8177 33.3247 21.7942 33.3168 21.7708 33.3083C21.7271 33.2938 21.6853 33.2762 21.6444 33.2569C21.62 33.2443 21.596 33.2322 21.5723 33.2194C21.5248 33.1946 21.4784 33.1661 21.4337 33.1352C21.4184 33.1241 21.4033 33.1132 21.3883 33.1021C21.3239 33.0544 21.2636 33.0013 21.2079 32.9438L16.5312 28.2484C15.9472 27.6604 15.9492 26.7104 16.5352 26.1264C17.1232 25.5424 18.0732 25.5424 18.6572 26.1304L20.7844 28.2666L20.7852 19.8184C20.7852 18.9904 21.4572 18.3184 22.2852 18.3184ZM29.4504 8.70461L29.4516 11.3186C29.4516 13.3266 31.0836 14.9626 33.0916 14.9686L35.4604 14.9666L29.4504 8.70461Z" fill="black"/>
</svg>
