<svg width="48" height="48" viewBox="0 0 48 48" fill="none" xmlns="http://www.w3.org/2000/svg">
<path fill-rule="evenodd" clip-rule="evenodd" d="M32.668 4C39.446 4 44 8.756 44 15.832V32.168C44 39.244 39.446 44 32.664 44H15.328C8.552 44 4 39.244 4 32.168V15.832C4 8.756 8.552 4 15.328 4H32.668ZM32.668 7H15.328C10.27 7 7 10.466 7 15.832V32.168C7 37.534 10.27 41 15.328 41H32.664C37.728 41 41 37.534 41 32.168V15.832C41 10.466 37.728 7 32.668 7ZM17.6736 18.7968C20.0242 18.7984 22.0109 20.36 22.6565 22.4978L34.0194 22.499C34.8474 22.499 35.5194 23.171 35.5194 23.999V27.705C35.5194 28.533 34.8474 29.205 34.0194 29.205C33.1914 29.205 32.5194 28.533 32.5194 27.705V25.499L29.862 25.498L29.863 27.705C29.863 28.533 29.191 29.205 28.363 29.205C27.535 29.205 26.863 28.533 26.863 27.705L26.862 25.498L22.6574 25.4999C22.0122 27.6402 20.0224 29.2048 17.6736 29.2048C14.8036 29.2048 12.4696 26.8688 12.4696 24.0008C12.4696 21.1308 14.8036 18.7968 17.6736 18.7968ZM17.6776 21.7968C16.4576 21.7968 15.4696 22.7848 15.4696 24.0008C15.4696 25.2168 16.4576 26.2048 17.6736 26.2048C18.8876 26.2048 19.8776 25.2168 19.8776 24.0008C19.8776 22.7868 18.8896 21.7988 17.6776 21.7968Z" fill="black"/>
</svg>
