<svg width="48" height="48" viewBox="0 0 48 48" fill="none" xmlns="http://www.w3.org/2000/svg">
<path fill-rule="evenodd" clip-rule="evenodd" d="M24.5 4C35.804 4 45 13.196 45 24.5C45 35.804 35.804 45 24.5 45C13.196 45 4 35.804 4 24.5C4 13.196 13.196 4 24.5 4ZM24.5 7C14.85 7 7 14.85 7 24.5C7 34.15 14.85 42 24.5 42C34.15 42 42 34.15 42 24.5C42 14.85 34.15 7 24.5 7ZM23.6616 17.5228C24.7016 17.9568 31.9996 21.6948 31.9996 24.4908C31.9996 27.1108 25.4316 30.7748 23.7536 31.4748C23.0996 31.7468 22.3536 32.0028 21.6556 32.0028C21.1156 32.0028 20.6036 31.8488 20.1856 31.4328C19.8636 31.1148 19.0036 30.2648 18.9996 24.6668C18.9976 18.7228 19.8916 17.8388 20.1856 17.5448C21.2316 16.5088 22.9356 17.2188 23.6616 17.5228ZM22.2676 20.1728C21.9136 22.1748 21.9076 26.9568 22.2616 28.8568C24.0176 28.2368 27.8216 25.7368 28.8456 24.4988C27.8256 23.2968 24.0696 20.8488 22.2676 20.1728Z" fill="black"/>
</svg>
