<svg width="48" height="48" viewBox="0 0 48 48" fill="none" xmlns="http://www.w3.org/2000/svg">
<path fill-rule="evenodd" clip-rule="evenodd" d="M32.872 2C40.126 2 45 7.092 45 14.67V32.33C45 39.908 40.126 45 32.872 45H14.128C6.874 45 2 39.908 2 32.33V14.67C2 7.092 6.874 2 14.128 2H32.872ZM32.872 5H14.128C8.584 5 5 8.794 5 14.67V32.33C5 38.206 8.584 42 14.128 42H32.872C38.418 42 42 38.206 42 32.33V14.67C42 8.794 38.418 5 32.872 5ZM23.5 14.6546C24.328 14.6546 25 15.3266 25 16.1546V21.98L30.833 21.9804C31.661 21.9804 32.333 22.6524 32.333 23.4804C32.333 24.3084 31.661 24.9804 30.833 24.9804L25 24.98V30.8086C25 31.6366 24.328 32.3086 23.5 32.3086C22.672 32.3086 22 31.6366 22 30.8086V24.98L16.167 24.9804C15.337 24.9804 14.667 24.3084 14.667 23.4804C14.667 22.6524 15.337 21.9804 16.167 21.9804L22 21.98V16.1546C22 15.3266 22.672 14.6546 23.5 14.6546Z" fill="black"/>
</svg>
