<svg width="48" height="48" viewBox="0 0 48 48" fill="none" xmlns="http://www.w3.org/2000/svg">
<path fill-rule="evenodd" clip-rule="evenodd" d="M39.68 36.3862C39.68 42.9782 30.64 43.7402 23.842 43.7402L23.3555 43.7398C19.0244 43.7293 8 43.4558 8 36.3462C8 29.8887 16.6767 29.0257 23.423 28.9932L24.3285 28.9926C28.6593 29.0031 39.68 29.2766 39.68 36.3862ZM23.842 31.9922C15.32 31.9922 11 33.4562 11 36.3462C11 39.2622 15.32 40.7402 23.842 40.7402C32.362 40.7402 36.68 39.2762 36.68 36.3862C36.68 33.4702 32.362 31.9922 23.842 31.9922ZM23.842 3.99939C29.698 3.99939 34.46 8.76339 34.46 14.6194C34.46 20.4754 29.698 25.2374 23.842 25.2374H23.778C17.934 25.2194 13.2 20.4534 13.2199 14.6134C13.2199 8.76339 17.984 3.99939 23.842 3.99939ZM23.842 6.85539C19.56 6.85539 16.076 10.3374 16.076 14.6194C16.062 18.8874 19.52 22.3674 23.784 22.3834L23.842 23.8114V22.3834C28.122 22.3834 31.604 18.8994 31.604 14.6194C31.604 10.3374 28.122 6.85539 23.842 6.85539Z" fill="black"/>
</svg>
