<svg width="48" height="48" viewBox="0 0 48 48" fill="none" xmlns="http://www.w3.org/2000/svg">
<path fill-rule="evenodd" clip-rule="evenodd" d="M8.7398 34.5573C8.7398 37.8453 11.4158 40.5213 14.7058 40.5213H17.1778C18.0058 40.5213 18.6778 41.1933 18.6778 42.0213C18.6778 42.8493 18.0058 43.5213 17.1778 43.5213H14.7058C9.7618 43.5213 5.7398 39.4993 5.7398 34.5573L5.738 27.9081L3.5 27.9099C2.672 27.9099 2 27.2379 2 26.4099C2 25.5819 2.672 24.9099 3.5 24.9099L7.21117 24.9076C7.22069 24.9074 7.23024 24.9073 7.2398 24.9073L7.268 24.9081L41.7296 24.9076C41.7397 24.9074 41.7499 24.9073 41.76 24.9073L41.788 24.9081L45.5 24.9099C46.328 24.9099 47 25.5819 47 26.4099C47 27.2379 46.328 27.9099 45.5 27.9099L43.26 27.9081V34.5573C43.26 39.4993 39.238 43.5213 34.294 43.5213H31.884C31.056 43.5213 30.384 42.8493 30.384 42.0213C30.384 41.1933 31.056 40.5213 31.884 40.5213H34.294C37.584 40.5213 40.26 37.8453 40.26 34.5573V27.9081H8.738L8.7398 34.5573ZM34.2938 6.00009C39.2378 6.00009 43.2598 10.0221 43.2598 14.9621V17.9901C43.2598 18.8181 42.5878 19.4901 41.7598 19.4901C40.9318 19.4901 40.2598 18.8181 40.2598 17.9901V14.9621C40.2598 11.6761 37.5838 9.00009 34.2938 9.00009H31.8838C31.0558 9.00009 30.3838 8.32809 30.3838 7.50009C30.3838 6.67209 31.0558 6.00009 31.8838 6.00009H34.2938ZM17.1782 6.00009C18.0062 6.00009 18.6782 6.67209 18.6782 7.50009C18.6782 8.32809 18.0062 9.00009 17.1782 9.00009H14.7062C11.4162 9.00009 8.7402 11.6761 8.7402 14.9621V17.9901C8.7402 18.8181 8.0682 19.4901 7.2402 19.4901C6.4122 19.4901 5.7402 18.8181 5.7402 17.9901V14.9621C5.7402 10.0221 9.7622 6.00009 14.7062 6.00009H17.1782Z" fill="black"/>
</svg>
