<svg width="48" height="48" viewBox="0 0 48 48" fill="none" xmlns="http://www.w3.org/2000/svg">
<path fill-rule="evenodd" clip-rule="evenodd" d="M21.6099 29.6356L28.9239 41.5016C29.2439 42.0216 29.7439 42.0156 29.9459 41.9876C30.1479 41.9596 30.6339 41.8356 30.8099 41.2456L39.9559 10.3556C40.1159 9.8096 39.8219 9.4376 39.6899 9.3056C39.5619 9.1736 39.1959 8.8916 38.6659 9.0416L7.75389 18.0936C7.16789 18.2656 7.03989 18.7576 7.01189 18.9596C6.98389 19.1656 6.97589 19.6756 7.49389 20.0016L19.4959 27.5076L30.0999 16.7916C30.6819 16.2036 31.6319 16.1976 32.2219 16.7796C32.8119 17.3616 32.8159 18.3136 32.2339 18.9016L21.6099 29.6356ZM29.7899 44.9996C28.3979 44.9996 27.1219 44.2916 26.3699 43.0756L18.6159 30.4936L5.90389 22.5436C4.53389 21.6856 3.81789 20.1576 4.03989 18.5516C4.25989 16.9456 5.36189 15.6696 6.90989 15.2156L37.8219 6.1636C39.2439 5.7476 40.7679 6.1416 41.8159 7.1856C42.8639 8.2396 43.2539 9.7796 42.8299 11.2076L33.6839 42.0956C33.2259 43.6496 31.9459 44.7476 30.3439 44.9616C30.1559 44.9856 29.9739 44.9996 29.7899 44.9996Z" fill="black"/>
</svg>
