<svg width="48" height="48" viewBox="0 0 48 48" fill="none" xmlns="http://www.w3.org/2000/svg">
<path fill-rule="evenodd" clip-rule="evenodd" d="M24.5346 4.00101C25.9666 4.00101 27.3586 4.58901 28.3566 5.61101C29.3526 6.63901 29.9026 8.04901 29.8606 9.47901C29.8646 9.80101 29.9706 10.173 30.1626 10.499C30.4806 11.039 30.9826 11.419 31.5786 11.575C32.1746 11.723 32.7986 11.643 33.3286 11.329C35.8886 9.86701 39.1466 10.743 40.6086 13.283L41.8546 15.441C41.8866 15.499 41.9146 15.555 41.9386 15.613C43.2626 18.115 42.3786 21.265 39.9186 22.703C39.5606 22.909 39.2706 23.197 39.0706 23.545C38.7606 24.083 38.6746 24.723 38.8306 25.311C38.9906 25.911 39.3726 26.409 39.9106 26.717C41.1246 27.415 42.0306 28.591 42.3926 29.949C42.7546 31.305 42.5566 32.777 41.8506 33.991L40.5226 36.203C39.0606 38.715 35.8026 39.585 33.2686 38.121C32.9306 37.927 32.5406 37.821 32.1526 37.811H32.1406C31.5626 37.811 30.9686 38.057 30.5366 38.487C30.0986 38.925 29.8586 39.509 29.8626 40.129C29.8486 43.067 27.4586 45.443 24.5346 45.443H22.0286C19.0906 45.443 16.7006 43.055 16.7006 40.117C16.6966 39.755 16.5926 39.379 16.3986 39.053C16.0846 38.505 15.5766 38.113 14.9906 37.957C14.4086 37.801 13.7706 37.887 13.2466 38.191C11.9906 38.891 10.5126 39.061 9.16064 38.681C7.81064 38.299 6.64464 37.371 5.96064 36.141L4.71064 33.987C3.24864 31.451 4.11864 28.201 6.65064 26.737C7.36864 26.323 7.81464 25.551 7.81464 24.723C7.81464 23.895 7.36864 23.121 6.65064 22.707C4.11664 21.235 3.24864 17.977 4.70864 15.441L6.06464 13.215C7.50664 10.707 10.7666 9.82301 13.3086 11.283C13.6546 11.489 14.0306 11.593 14.4126 11.597C15.6586 11.597 16.7006 10.569 16.7206 9.30501C16.7126 7.91101 17.2626 6.57301 18.2646 5.56301C19.2706 4.55501 20.6066 4.00101 22.0286 4.00101H24.5346ZM24.5346 7.00101H22.0286C21.4086 7.00101 20.8286 7.24301 20.3906 7.67901C19.9546 8.11701 19.7166 8.69901 19.7206 9.31901C19.6786 12.243 17.2886 14.597 14.3946 14.597C13.4666 14.587 12.5726 14.337 11.7966 13.873C10.7066 13.253 9.28264 13.635 8.64464 14.745L7.29064 16.971C6.67064 18.047 7.05064 19.469 8.15464 20.111C9.79264 21.059 10.8146 22.827 10.8146 24.723C10.8146 26.619 9.79264 28.385 8.15064 29.335C7.05264 29.971 6.67264 31.385 7.30864 32.485L8.57064 34.661C8.88264 35.223 9.39264 35.629 9.98264 35.795C10.5706 35.959 11.2186 35.889 11.7586 35.589C12.5526 35.123 13.4766 34.881 14.4046 34.881C14.8626 34.881 15.3206 34.939 15.7686 35.059C17.1206 35.423 18.2946 36.327 18.9906 37.541C19.4426 38.303 19.6926 39.193 19.7006 40.101C19.7006 41.401 20.7446 42.443 22.0286 42.443H24.5346C25.8126 42.443 26.8566 41.407 26.8626 40.129C26.8546 38.717 27.4066 37.375 28.4166 36.365C29.4126 35.369 30.8046 34.771 32.1966 34.811C33.1086 34.833 33.9866 35.079 34.7606 35.519C35.8746 36.157 37.2966 35.777 37.9406 34.677L39.2686 32.463C39.5646 31.953 39.6506 31.313 39.4926 30.723C39.3366 30.133 38.9446 29.621 38.4166 29.319C37.1806 28.607 36.2986 27.459 35.9326 26.083C35.5706 24.733 35.7686 23.259 36.4746 22.045C36.9346 21.245 37.6086 20.571 38.4166 20.107C39.5006 19.473 39.8806 18.055 39.2506 16.951C39.2246 16.907 39.2006 16.861 39.1806 16.813L38.0086 14.781C37.3706 13.671 35.9506 13.289 34.8366 13.923C33.6326 14.635 32.2006 14.839 30.8246 14.477C29.4506 14.121 28.2986 13.251 27.5806 12.023C27.1206 11.255 26.8706 10.361 26.8626 9.45101C26.8806 8.76701 26.6406 8.15301 26.2046 7.70301C25.7706 7.25501 25.1606 7.00101 24.5346 7.00101ZM23.2904 17.9492C27.0244 17.9492 30.0624 20.9892 30.0624 24.7232C30.0624 28.4572 27.0244 31.4932 23.2904 31.4932C19.5564 31.4932 16.5184 28.4572 16.5184 24.7232C16.5184 20.9892 19.5564 17.9492 23.2904 17.9492ZM23.2904 20.9492C21.2104 20.9492 19.5184 22.6432 19.5184 24.7232C19.5184 26.8032 21.2104 28.4932 23.2904 28.4932C25.3704 28.4932 27.0624 26.8032 27.0624 24.7232C27.0624 22.6432 25.3704 20.9492 23.2904 20.9492Z" fill="black"/>
</svg>
