<svg width="48" height="48" viewBox="0 0 48 48" fill="none" xmlns="http://www.w3.org/2000/svg">
<path fill-rule="evenodd" clip-rule="evenodd" d="M24.9673 4C27.2333 4 39.1253 8.082 40.6973 9.656C42.0093 10.968 41.9893 12.028 41.8973 17.114C41.8613 19.15 41.8113 21.924 41.8113 25.758C41.8113 39.522 26.0713 44.446 25.4013 44.648C25.2593 44.692 25.1133 44.712 24.9673 44.712C24.8213 44.712 24.6753 44.692 24.5333 44.648C23.8633 44.446 8.12331 39.522 8.12331 25.758C8.12331 21.918 8.07331 19.144 8.03731 17.108C8.02088 16.2009 8.00675 15.4219 8.00207 14.7468L8.00146 13.985C8.01843 11.4822 8.25281 10.64 9.23531 9.656C10.8093 8.082 22.7013 4 24.9673 4ZM24.9673 7C23.2713 7 12.5693 10.768 11.3353 11.798C11.0986 12.036 11.0107 12.3903 10.9994 13.7962L10.9985 14.3375C11.0009 15.0236 11.0148 15.9067 11.0353 17.052C11.0733 19.104 11.1233 21.894 11.1233 25.758C11.1233 36.16 22.5673 40.778 24.9653 41.628C27.3613 40.774 38.8113 36.13 38.8113 25.758C38.8113 21.898 38.8613 19.11 38.8973 17.058C38.9183 15.9116 38.9326 15.0278 38.9348 14.3407L38.9336 13.7984C38.921 12.3896 38.8277 12.0304 38.5753 11.778C37.3633 10.768 26.6633 7 24.9673 7ZM22.2691 19.0744L24.9675 21.774L27.6655 19.0744C28.2515 18.4884 29.1995 18.4884 29.7855 19.0744C30.3715 19.6604 30.3715 20.6084 29.7855 21.1944L27.0875 23.894L29.7851 26.5904C30.3711 27.1764 30.3711 28.1244 29.7851 28.7104C29.4931 29.0044 29.1091 29.1504 28.7251 29.1504C28.3411 29.1504 27.9571 29.0044 27.6651 28.7104L24.9675 26.014L22.2695 28.7104C21.9775 29.0044 21.5935 29.1504 21.2095 29.1504C20.8255 29.1504 20.4415 29.0044 20.1495 28.7104C19.5635 28.1244 19.5635 27.1764 20.1495 26.5904L22.8475 23.894L20.1491 21.1944C19.5631 20.6084 19.5631 19.6604 20.1491 19.0744C20.7351 18.4884 21.6831 18.4884 22.2691 19.0744Z" fill="black"/>
</svg>
