<svg width="48" height="48" viewBox="0 0 48 48" fill="none" xmlns="http://www.w3.org/2000/svg">
<path fill-rule="evenodd" clip-rule="evenodd" d="M24.006 8.00101C32.278 8.00701 39.706 13.805 43.878 23.513C44.042 23.891 44.042 24.319 43.878 24.697C39.708 34.407 32.278 40.205 24.006 40.211H23.994C15.722 40.205 8.29399 34.407 4.12199 24.697C3.95999 24.319 3.95999 23.891 4.12199 23.513C8.29399 13.805 15.724 8.00701 23.994 8.00101H24.006ZM24 11.001C17.128 11.003 10.86 15.889 7.13999 24.105C10.86 32.323 17.126 37.209 24 37.211C30.874 37.209 37.14 32.323 40.86 24.105C37.14 15.889 30.874 11.003 24 11.001ZM23.9994 16.2826C28.3134 16.2826 31.8234 19.7926 31.8234 24.1066C31.8234 28.4186 28.3134 31.9266 23.9994 31.9266C19.6854 31.9266 16.1774 28.4186 16.1774 24.1066C16.1774 19.7926 19.6854 16.2826 23.9994 16.2826ZM23.9994 19.2826C21.3394 19.2826 19.1774 21.4466 19.1774 24.1066C19.1774 26.7646 21.3394 28.9266 23.9994 28.9266C26.6594 28.9266 28.8234 26.7646 28.8234 24.1066C28.8234 21.4466 26.6594 19.2826 23.9994 19.2826Z" fill="black"/>
</svg>
