<svg width="48" height="48" viewBox="0 0 48 48" fill="none" xmlns="http://www.w3.org/2000/svg">
<path fill-rule="evenodd" clip-rule="evenodd" d="M23.4998 9C23.3178 9 22.8698 9.05 22.6318 9.526L18.9798 16.828C18.4018 17.982 17.2878 18.784 15.9998 18.968L7.82383 20.146C7.28383 20.224 7.09983 20.624 7.04383 20.792C6.99383 20.954 6.91383 21.366 7.28583 21.722L13.1978 27.402C14.1398 28.308 14.5678 29.614 14.3438 30.892L12.9518 38.912C12.8658 39.414 13.1798 39.706 13.3198 39.806C13.4678 39.918 13.8638 40.14 14.3538 39.884L21.6638 36.094C22.8158 35.5 24.1878 35.5 25.3358 36.094L32.6438 39.882C33.1358 40.136 33.5318 39.914 33.6818 39.806C33.8218 39.706 34.1358 39.414 34.0498 38.912L32.6538 30.892C32.4298 29.614 32.8578 28.308 33.7998 27.402L39.7118 21.722C40.0858 21.366 40.0058 20.952 39.9538 20.792C39.8998 20.624 39.7158 20.224 39.1758 20.146L30.9998 18.968C29.7138 18.784 28.5998 17.982 28.0218 16.826L24.3658 9.526C24.1298 9.05 23.6818 9 23.4998 9ZM13.8938 43C13.0678 43 12.2478 42.74 11.5458 42.228C10.3338 41.34 9.73983 39.874 9.99783 38.398L11.3898 30.378C11.4418 30.08 11.3398 29.778 11.1198 29.566L5.20783 23.886C4.11983 22.844 3.72983 21.304 4.18983 19.874C4.65383 18.428 5.88183 17.394 7.39583 17.178L15.5718 16C15.8878 15.956 16.1598 15.762 16.2958 15.486L19.9498 8.182C20.6238 6.836 21.9838 6 23.4998 6C25.0158 6 26.3758 6.836 27.0498 8.182L30.7058 15.484C30.8438 15.762 31.1138 15.956 31.4278 16L39.6038 17.178C41.1178 17.394 42.3458 18.428 42.8098 19.874C43.2698 21.304 42.8778 22.844 41.7898 23.886L35.8778 29.566C35.6578 29.778 35.5578 30.08 35.6098 30.376L37.0038 38.398C37.2598 39.876 36.6658 41.342 35.4518 42.228C34.2218 43.13 32.6198 43.252 31.2618 42.544L23.9558 38.758C23.6698 38.61 23.3278 38.61 23.0418 38.758L15.7358 42.546C15.1518 42.85 14.5218 43 13.8938 43Z" fill="black"/>
</svg>
