<svg width="48" height="48" viewBox="0 0 48 48" fill="none" xmlns="http://www.w3.org/2000/svg">
<path d="M33.6792 11.5929C34.4386 11.5929 35.0662 12.1572 35.1655 12.8893L35.1792 13.0929L35.179 36.6929L40.7714 31.078C41.3559 30.4909 42.3056 30.4887 42.8928 31.0731C43.4265 31.6044 43.4769 32.4376 43.0425 33.0259L42.8977 33.1944L34.7421 41.3878C34.6929 41.436 34.6429 41.4799 34.5901 41.5203L34.7421 41.3878C34.6685 41.4617 34.5892 41.5263 34.5055 41.5817C34.4763 41.5999 34.4459 41.6185 34.4149 41.636C34.386 41.6533 34.3567 41.6686 34.3271 41.6828C34.2978 41.6958 34.2681 41.7088 34.2379 41.721C34.1995 41.7374 34.1602 41.7513 34.1204 41.7635C34.097 41.7697 34.073 41.7765 34.0487 41.7826C34.0055 41.7945 33.9621 41.8034 33.9184 41.8104C33.898 41.8128 33.8766 41.8157 33.855 41.8183C33.8057 41.825 33.7569 41.8283 33.708 41.8293C33.6983 41.8284 33.6888 41.8284 33.6792 41.8284L33.65 41.8293C33.6011 41.8283 33.5523 41.825 33.5037 41.8193L33.6792 41.8284C33.5975 41.8284 33.5173 41.8219 33.4391 41.8093C33.3959 41.8034 33.3525 41.7945 33.3095 41.7836C33.2867 41.7768 33.2639 41.7704 33.2413 41.7635C33.1983 41.7515 33.1556 41.7364 33.1135 41.7193C33.0905 41.7087 33.0682 41.699 33.0463 41.6888C33.0117 41.674 32.9771 41.6563 32.9431 41.6371C32.9124 41.6184 32.8821 41.5998 32.8526 41.5803C32.8295 41.5664 32.8067 41.5505 32.7843 41.5338L32.7683 41.5203C32.7155 41.4799 32.6655 41.436 32.6186 41.3891L32.6159 41.3878L24.4603 33.1944C23.8759 32.6073 23.8781 31.6575 24.4652 31.0731C24.999 30.5418 25.8324 30.4953 26.4186 30.9324L26.5865 31.078L32.179 36.6969L32.1792 13.0929C32.1792 12.2645 32.8508 11.5929 33.6792 11.5929ZM13.8223 6.16578L13.8515 6.16495C13.9004 6.16589 13.9493 6.1692 13.9979 6.17489L13.8223 6.16578C13.904 6.16578 13.9842 6.17231 14.0624 6.18489C14.1052 6.19073 14.1481 6.19956 14.1906 6.21029C14.2156 6.21762 14.2411 6.22478 14.2663 6.23258C14.3057 6.24369 14.3438 6.25718 14.3815 6.27227C14.4087 6.28438 14.4362 6.29642 14.4633 6.30925C14.4955 6.32318 14.5273 6.33956 14.5585 6.35716C14.5852 6.37362 14.6117 6.38966 14.6376 6.40647C14.6643 6.42233 14.691 6.44089 14.7172 6.46042L14.8857 6.60646L23.0412 14.7998C23.6256 15.3869 23.6234 16.3367 23.0363 16.9211C22.5025 17.4524 21.6691 17.4989 21.0829 17.0618L20.915 16.9162L15.321 11.2949L15.3223 34.9013C15.3223 35.7298 14.6508 36.4013 13.8223 36.4013C13.0629 36.4013 12.4353 35.837 12.336 35.1049L12.3223 34.9013L12.321 11.2969L6.7301 16.9162C6.1988 17.45 5.36559 17.5003 4.77736 17.066L4.60879 16.9211C4.07502 16.3898 4.02469 15.5566 4.45904 14.9684L4.60388 14.7998L12.7594 6.60646L12.8478 6.52547C12.8685 6.50772 12.8897 6.49054 12.9114 6.47393L12.7594 6.60646C12.833 6.53254 12.9124 6.46789 12.9961 6.41252C13.0253 6.39433 13.0556 6.37576 13.0867 6.35826C13.1155 6.34089 13.1448 6.32565 13.1745 6.31144C13.2037 6.29848 13.2335 6.2854 13.2637 6.27327C13.302 6.25686 13.3414 6.24297 13.3811 6.23077C13.4053 6.22427 13.4301 6.21735 13.4551 6.21105C13.4954 6.19999 13.5362 6.19152 13.5771 6.18477C13.6017 6.18169 13.6259 6.17833 13.6502 6.17555C13.6965 6.16919 13.744 6.16596 13.7916 6.16499C13.802 6.16588 13.8122 6.16578 13.8223 6.16578Z" fill="black"/>
</svg>
