<svg width="48" height="48" viewBox="0 0 48 48" fill="none" xmlns="http://www.w3.org/2000/svg">
<mask id="mask0_564_112162" style="mask-type:alpha" maskUnits="userSpaceOnUse" x="4" y="6" width="40" height="37">
<path d="M4 6.00101H44V42.333H4V6.00101Z" fill="white"/>
</mask>
<g mask="url(#mask0_564_112162)">
<path fill-rule="evenodd" clip-rule="evenodd" d="M7 29.959V34.049C7 35.461 7.548 36.787 8.546 37.785C9.544 38.783 10.872 39.333 12.282 39.333H35.714C38.626 39.333 40.998 36.965 41 34.053V29.957C38.428 29.291 36.522 26.949 36.52 24.171C36.52 21.393 38.426 19.051 40.998 18.383L41 14.293C41.002 11.377 38.636 9.00301 35.722 9.00101H12.288C9.374 9.00101 7.002 11.371 7 14.285V18.519C7.972 18.751 8.874 19.229 9.624 19.929C10.762 20.991 11.418 22.431 11.474 23.987C11.48 26.919 9.574 29.287 7 29.959ZM35.714 42.333H12.284C10.07 42.333 7.99 41.473 6.424 39.907C4.86 38.341 4 36.261 4 34.049V28.649C4 27.821 4.672 27.149 5.5 27.149C7.148 27.147 8.48 25.811 8.478 24.171C8.45 23.335 8.13 22.639 7.578 22.123C7.028 21.607 6.316 21.325 5.552 21.367C5.138 21.371 4.75 21.229 4.458 20.947C4.166 20.665 4 20.273 4 19.867V14.287C4.002 9.71701 7.72 6.00101 12.288 6.00101H35.712C40.292 6.00301 44.004 9.72701 44 14.295V19.693C44 20.521 43.328 21.193 42.5 21.193C40.858 21.193 39.52 22.529 39.52 24.169C39.522 25.813 40.858 27.149 42.5 27.149C43.328 27.149 44 27.821 44 28.649V34.049C43.998 38.617 40.28 42.333 35.714 42.333Z" fill="black"/>
</g>
<path fill-rule="evenodd" clip-rule="evenodd" d="M20.2077 22.763L21.2257 23.755C21.7777 24.297 22.0277 25.069 21.8957 25.823L21.6557 27.219L22.9137 26.557C23.5917 26.195 24.4057 26.197 25.0897 26.561L26.3397 27.217L26.0997 25.819C25.9737 25.053 26.2257 24.287 26.7717 23.755L27.7897 22.763L26.3797 22.559C25.6237 22.449 24.9677 21.973 24.6297 21.283L23.9997 20.009L23.3697 21.285C23.0317 21.973 22.3757 22.449 21.6157 22.559L20.2077 22.763ZM27.2357 30.775C26.8637 30.775 26.4917 30.685 26.1477 30.503L23.9997 29.377L21.8497 30.505C21.0577 30.919 20.1157 30.853 19.3957 30.329C18.6737 29.803 18.3197 28.931 18.4697 28.051L18.8797 25.659L17.1417 23.965C16.5037 23.343 16.2757 22.429 16.5497 21.581C16.8257 20.731 17.5457 20.121 18.4277 19.993L20.8357 19.641L21.9097 17.463C22.3037 16.663 23.1037 16.165 23.9997 16.165C24.8917 16.165 25.6937 16.663 26.0877 17.465L27.1637 19.641L29.5677 19.993C30.4517 20.121 31.1737 20.731 31.4477 21.581C31.7217 22.429 31.4957 23.343 30.8557 23.967L29.1157 25.661L29.5277 28.051C29.6777 28.933 29.3217 29.807 28.5977 30.331C28.1897 30.625 27.7137 30.775 27.2357 30.775Z" fill="black"/>
</svg>
