<svg width="48" height="48" viewBox="0 0 48 48" fill="none" xmlns="http://www.w3.org/2000/svg">
<path fill-rule="evenodd" clip-rule="evenodd" d="M36.902 7.99939C41.366 7.99939 44.998 11.5954 44.998 16.0134L45 21.2014C45 21.5974 44.842 21.9814 44.56 22.2614C44.28 22.5434 43.898 22.7014 43.5 22.7014C41.926 22.7014 40.646 23.9574 40.646 25.5014C40.646 27.0454 41.926 28.3014 43.5 28.3014C44.328 28.3014 45 28.9734 45 29.8014V34.9854C45 39.4034 41.368 42.9994 36.904 42.9994H10.096C5.632 42.9994 2 39.4034 2 34.9854V29.8014C2 28.9734 2.672 28.3014 3.5 28.3014C5.074 28.3014 6.354 27.0454 6.354 25.5014C6.354 24.0014 5.126 22.8694 3.5 22.8694C3.102 22.8694 2.72 22.7114 2.44 22.4294C2.158 22.1494 2 21.7654 2 21.3694L2.002 16.0134C2.002 11.5954 5.634 7.99939 10.098 7.99939H36.902ZM36.902 10.9994H28.698L28.6992 14.8418C28.6992 15.6698 28.0272 16.3418 27.1992 16.3418C26.3712 16.3418 25.6992 15.6698 25.6992 14.8418L25.698 10.9994H10.098C7.288 10.9994 5.002 13.2494 5.002 16.0134L5 20.0494C7.534 20.6714 9.354 22.8434 9.354 25.5014C9.354 28.1854 7.502 30.4494 5 31.1074V34.9854C5 37.7494 7.286 39.9994 10.096 39.9994H25.698L25.6992 37.0224C25.6992 36.1924 26.3712 35.5224 27.1992 35.5224C28.0272 35.5224 28.6992 36.1924 28.6992 37.0224L28.698 39.9994H36.904C39.714 39.9994 42 37.7494 42 34.9854V31.1074C39.498 30.4494 37.646 28.1854 37.646 25.5014C37.646 22.8154 39.496 20.5534 42 19.8954L41.998 16.0134C41.998 13.2494 39.712 10.9994 36.902 10.9994ZM27.1992 19.0084C28.0272 19.0084 28.6992 19.6804 28.6992 20.5084V30.1504C28.6992 30.9784 28.0272 31.6504 27.1992 31.6504C26.3712 31.6504 25.6992 30.9784 25.6992 30.1504V20.5084C25.6992 19.6804 26.3712 19.0084 27.1992 19.0084Z" fill="black"/>
</svg>
