<svg width="48" height="48" viewBox="0 0 48 48" fill="none" xmlns="http://www.w3.org/2000/svg">
<path fill-rule="evenodd" clip-rule="evenodd" d="M24.7494 4.00061C29.2614 4.00061 33.2894 6.86661 34.7674 11.1346C35.0394 11.9166 34.6234 12.7706 33.8394 13.0426C33.0574 13.3166 32.2034 12.8986 31.9314 12.1146C30.8734 9.05661 27.9834 7.00061 24.7434 7.00061H24.7154C20.5314 7.00061 17.1234 10.3886 17.1054 14.5686L17.104 17.2526L32.368 17.254C37.376 17.254 41.452 21.33 41.452 26.34V34.916C41.452 39.926 37.376 44.002 32.368 44.002H17.084C12.074 44.002 8 39.926 8 34.916V26.34C8 22.3732 10.554 18.992 14.1044 17.7558L14.1054 14.6026C14.1314 8.72661 18.8834 4.00061 24.7094 4.00061H24.7494ZM32.368 20.254H17.084C13.728 20.254 11 22.984 11 26.34V34.916C11 38.272 13.728 41.002 17.084 41.002H32.368C35.722 41.002 38.452 38.272 38.452 34.916V26.34C38.452 22.984 35.722 20.254 32.368 20.254ZM24.7266 26.9056C25.5546 26.9056 26.2266 27.5776 26.2266 28.4056V32.8496C26.2266 33.6776 25.5546 34.3496 24.7266 34.3496C23.8986 34.3496 23.2266 33.6776 23.2266 32.8496V28.4056C23.2266 27.5776 23.8986 26.9056 24.7266 26.9056Z" fill="black"/>
</svg>
