<svg width="48" height="48" viewBox="0 0 48 48" fill="none" xmlns="http://www.w3.org/2000/svg">
<path fill-rule="evenodd" clip-rule="evenodd" d="M38.8452 17.2164C39.4961 17.8859 39.4961 18.9713 38.8452 19.6407L27.1786 31.6407C26.5517 32.2854 25.544 32.3127 24.8851 31.7028L17.6247 24.9817L8.73368 32.6026C8.02655 33.2087 6.97561 33.1105 6.38634 32.3831C5.79707 31.6558 5.89261 30.5748 6.59973 29.9687L16.5997 21.3973C17.2363 20.8517 18.1658 20.8699 18.7816 21.4401L25.9396 28.0663L36.4882 17.2164C37.1391 16.5469 38.1943 16.5469 38.8452 17.2164Z" fill="black"/>
<path fill-rule="evenodd" clip-rule="evenodd" d="M26 16.7143C26 15.7675 26.7462 15 27.6667 15H39.3333C40.2538 15 41 15.7675 41 16.7143V28.7143C41 29.661 40.2538 30.4285 39.3333 30.4285C38.4129 30.4285 37.6667 29.661 37.6667 28.7143V18.4286H27.6667C26.7462 18.4286 26 17.6611 26 16.7143Z" fill="black"/>
</svg>
