<svg width="48" height="48" viewBox="0 0 48 48" fill="none" xmlns="http://www.w3.org/2000/svg">
<path fill-rule="evenodd" clip-rule="evenodd" d="M14.737 17.5882C15.565 17.5882 16.237 18.2602 16.237 19.0882C16.237 19.9162 15.565 20.5882 14.737 20.5882H12.871C9.63298 20.5882 7.00098 23.2202 7.00098 26.4562V36.2062C7.00098 39.4442 9.63298 42.0762 12.871 42.0762H35.131C38.367 42.0762 41.001 39.4442 41.001 36.2062V26.4382C41.001 23.2122 38.377 20.5882 35.153 20.5882H33.267C32.439 20.5882 31.767 19.9162 31.767 19.0882C31.767 18.2602 32.439 17.5882 33.267 17.5882H35.153C40.031 17.5882 44.001 21.5582 44.001 26.4382V36.2062C44.001 41.0982 40.021 45.0762 35.131 45.0762H12.871C7.98098 45.0762 4.00098 41.0982 4.00098 36.2062V26.4562C4.00098 21.5662 7.98098 17.5882 12.871 17.5882H14.737ZM25.0622 4.44339L30.8942 10.2994C31.4782 10.8874 31.4762 11.8354 30.8902 12.4194C30.3022 13.0034 29.3542 13.0034 28.7702 12.4154L25.499 9.13289L25.5002 31.082H22.5002L22.499 9.13289L19.2322 12.4154C18.9402 12.7114 18.5542 12.8574 18.1702 12.8574C17.7882 12.8574 17.4042 12.7114 17.1122 12.4194C16.5262 11.8354 16.5222 10.8874 17.1082 10.2994L22.9382 4.44339C23.5002 3.87739 24.5002 3.87739 25.0622 4.44339Z" fill="black"/>
</svg>
