<svg width="48" height="48" viewBox="0 0 48 48" fill="none" xmlns="http://www.w3.org/2000/svg">
<path fill-rule="evenodd" clip-rule="evenodd" d="M19.184 27.914C25.702 27.914 34.368 28.648 34.368 34.998C34.368 41.687 24.2702 42.0884 19.9388 42.1125L18.3662 42.1125C13.7479 42.0885 4 41.6894 4 35.038C4 28.3414 14.0978 27.9396 18.4292 27.9155L18.9496 27.9141C19.0307 27.914 19.1089 27.914 19.184 27.914ZM19.184 30.914C13.626 30.914 7 31.628 7 35.038C7 37.742 11.1 39.114 19.184 39.114C27.268 39.114 31.368 37.728 31.368 34.998C31.368 32.288 27.268 30.914 19.184 30.914ZM37.4134 26.9798C42.8254 27.7898 43.9594 30.2958 43.9594 32.2538C43.9594 33.7118 43.3294 35.6858 40.3234 36.8238C40.1494 36.8898 39.9694 36.9218 39.7914 36.9218C39.1854 36.9218 38.6154 36.5518 38.3894 35.9538C38.0954 35.1798 38.4854 34.3118 39.2594 34.0198C40.9594 33.3758 40.9594 32.5898 40.9594 32.2538C40.9594 31.1198 39.6174 30.3438 36.9714 29.9498C36.1514 29.8258 35.5854 29.0618 35.7074 28.2438C35.8314 27.4238 36.6094 26.8738 37.4134 26.9798ZM19.184 4C24.846 4 29.4541 8.608 29.4541 14.27C29.466 16.998 28.408 19.574 26.48 21.514C24.556 23.456 21.986 24.53 19.252 24.54H19.184C13.52 24.54 8.912 19.932 8.912 14.27C8.912 8.608 13.52 4 19.184 4ZM33.3592 6.2476C37.2892 6.8916 40.1412 10.2536 40.1412 14.2396C40.1332 18.2496 37.1392 21.6936 33.1752 22.2496C33.1052 22.2596 33.0352 22.2636 32.9652 22.2636C32.2292 22.2636 31.5872 21.7216 31.4812 20.9716C31.3672 20.1516 31.9372 19.3916 32.7572 19.2776C35.2532 18.9276 37.1372 16.7616 37.1412 14.2376C37.1412 11.7296 35.3452 9.6136 32.8752 9.2096C32.0572 9.0736 31.5032 8.3036 31.6372 7.4856C31.7712 6.6676 32.5452 6.1176 33.3592 6.2476ZM19.184 7C15.174 7 11.912 10.262 11.912 14.27C11.912 18.278 15.174 21.54 19.184 21.54H19.246C21.174 21.532 22.99 20.774 24.352 19.4C25.716 18.03 26.462 16.208 26.4541 14.276C26.4541 10.262 23.192 7 19.184 7Z" fill="black"/>
</svg>
