<svg width="48" height="48" viewBox="0 0 48 48" fill="none" xmlns="http://www.w3.org/2000/svg">
<path fill-rule="evenodd" clip-rule="evenodd" d="M23.7732 28.828L23.999 28.8281L24.5042 28.8298C28.3654 28.8552 37.1892 29.2453 37.1892 35.226C37.1892 41.1675 28.673 41.555 24.5644 41.5802L23.0422 41.5802C19.1808 41.5548 10.3552 41.1653 10.3552 35.192C10.3552 29.243 19.1808 28.8551 23.0422 28.8298L23.5474 28.8281C23.6257 28.828 23.7011 28.828 23.7732 28.828ZM23.7732 31.828C19.0212 31.828 13.3552 32.412 13.3552 35.192C13.3552 37.9091 18.683 38.5443 23.3389 38.5803L23.7732 38.582C28.5252 38.582 34.1892 38 34.1892 35.226C34.1892 32.418 28.5252 31.828 23.7732 31.828ZM39.6804 28.0164C44.5264 28.7424 45.5444 31.0184 45.5444 32.8004C45.5444 33.8884 45.1164 35.8744 42.2564 36.9644C42.0804 37.0304 41.9004 37.0624 41.7224 37.0624C41.1184 37.0624 40.5484 36.6944 40.3204 36.0964C40.0244 35.3224 40.4144 34.4544 41.1884 34.1604C42.5444 33.6444 42.5444 33.0744 42.5444 32.8004C42.5444 31.9244 41.4304 31.3124 39.2344 30.9844C38.4164 30.8604 37.8504 30.0984 37.9724 29.2764C38.0944 28.4564 38.8544 27.9104 39.6804 28.0164ZM9.572 29.2764C9.694 30.0984 9.128 30.8604 8.31 30.9844C6.114 31.3124 5 31.9244 5 32.8004C5 33.0744 5 33.6424 6.358 34.1604C7.132 34.4544 7.522 35.3224 7.226 36.0964C6.998 36.6944 6.428 37.0624 5.824 37.0624C5.646 37.0624 5.466 37.0304 5.29 36.9644C2.428 35.8724 2 33.8864 2 32.8004C2 31.0204 3.018 28.7424 7.866 28.0164C8.692 27.9124 9.448 28.4564 9.572 29.2764ZM23.7732 8C28.8132 8 32.9112 12.1 32.9112 17.138C32.9112 22.176 28.8132 26.276 23.7732 26.276H23.7192C21.2792 26.268 18.9932 25.312 17.2812 23.584C15.5652 21.858 14.6272 19.566 14.6371 17.132C14.6371 12.1 18.7352 8 23.7732 8ZM23.7732 11C20.3892 11 17.6372 13.754 17.6372 17.138C17.6312 18.778 18.2592 20.312 19.4092 21.47C20.5592 22.628 22.0912 23.27 23.7232 23.276L23.7732 24.776V23.276C27.1572 23.276 29.9112 20.524 29.9112 17.138C29.9112 13.754 27.1572 11 23.7732 11ZM36.1512 9.959C39.6672 10.537 42.2212 13.545 42.2212 17.111C42.2132 20.701 39.5312 23.781 35.9812 24.279C35.9112 24.289 35.8412 24.293 35.7732 24.293C35.0372 24.293 34.3952 23.751 34.2892 23.001C34.1752 22.179 34.7452 21.421 35.5672 21.307C37.6472 21.015 39.2172 19.211 39.2212 17.107C39.2212 15.021 37.7252 13.257 35.6632 12.919C34.8472 12.785 34.2932 12.013 34.4272 11.195C34.5632 10.377 35.3292 9.829 36.1512 9.959ZM13.1192 11.195C13.2532 12.013 12.6992 12.785 11.8832 12.919C9.8212 13.257 8.3252 15.021 8.3252 17.111C8.3292 19.211 9.8992 21.017 11.9772 21.307C12.7992 21.421 13.3692 22.179 13.2552 23.001C13.1492 23.751 12.5072 24.293 11.7712 24.293C11.7032 24.293 11.6332 24.289 11.5632 24.279C8.0132 23.781 5.3332 20.701 5.3252 17.115C5.3252 13.545 7.8792 10.537 11.3952 9.959C12.2372 9.827 12.9832 10.381 13.1192 11.195Z" fill="black"/>
</svg>
