<svg width="48" height="48" viewBox="0 0 48 48" fill="none" xmlns="http://www.w3.org/2000/svg">
<path fill-rule="evenodd" clip-rule="evenodd" d="M16.1785 10.0028L17.1192 10.004C17.28 10.0042 17.4426 10.0045 17.6067 10.0047L18.6064 10.0063C20.8 10.0101 23.1365 10.0152 24.9172 10.0189L25.6971 10.0205C25.8197 10.0208 25.9383 10.021 26.0527 10.0212C30.5527 9.70521 34.6147 13.0452 34.9767 17.5272C34.9801 17.5732 34.983 17.8341 34.9855 18.3086L39.1371 14.9086C40.3451 13.9186 41.9711 13.7246 43.3811 14.3906C44.7911 15.0606 45.6671 16.4446 45.6651 18.0046L45.6411 32.7026C45.6391 34.2626 44.7611 35.6466 43.3531 36.3106C42.8011 36.5726 42.2171 36.6986 41.6371 36.6986C40.7351 36.6986 39.8451 36.3886 39.1111 35.7866L34.9948 32.371C34.9948 32.4289 34.9947 32.487 34.9947 32.5452C35.0787 34.6572 34.3267 36.6912 32.8747 38.2712C31.3487 39.9332 29.2447 40.8992 26.9527 40.9932C26.9138 40.996 26.6948 40.9979 26.3353 40.9991L25.5451 41.0004C25.2369 41.0007 24.8868 41.0007 24.5032 41.0005L22.8113 40.9989C22.6589 40.9987 22.504 40.9985 22.347 40.9982L21.3822 40.9967C19.0835 40.9928 16.4941 40.9868 14.4866 40.9825L13.6644 40.9807C13.4039 40.9802 13.1578 40.9797 12.9287 40.9792C12.7167 40.9952 12.5047 41.0032 12.2927 41.0032C8.0647 41.0052 4.3767 37.7652 4.0287 33.5152L4.02839 33.5109L4.02652 33.4713C4.02638 33.4669 4.02624 33.4622 4.02609 33.4569L4.02472 33.3939C4.02456 33.385 4.0244 33.3753 4.02424 33.3649L4.02272 33.2485C4.02255 33.2328 4.02238 33.2161 4.0222 33.1985L4.0206 33.0094C4.02042 32.9849 4.02024 32.9591 4.02006 32.932L4.01897 32.7534C4.01879 32.7208 4.01861 32.6868 4.01843 32.6513L4.0168 32.2893C4.01663 32.2442 4.01645 32.1974 4.01627 32.1487L4.01471 31.6617C4.01454 31.6018 4.01437 31.54 4.0142 31.4762L4.01275 30.845C4.0126 30.7683 4.01244 30.6894 4.01229 30.6083L4.01062 29.5194C4.01049 29.4188 4.01036 29.3156 4.01024 29.2097L4.00869 27.4164C4.00861 27.2826 4.00853 27.1458 4.00845 27.006L4.00842 19.1701C4.00851 18.9325 4.0086 18.6908 4.0087 18.4452C3.9127 16.3832 4.6607 14.3352 6.1207 12.7412C7.6447 11.0772 9.7467 10.1072 12.0407 10.0092C12.0716 10.007 12.2178 10.0053 12.4589 10.0041L12.8892 10.0026C12.9719 10.0024 13.06 10.0022 13.153 10.0021L15.7292 10.0023C15.8763 10.0025 16.0262 10.0026 16.1785 10.0028ZM26.1607 13.0172C23.6356 13.0135 20.5481 13.0091 17.9132 13.0063L16.5271 13.0048C16.3055 13.0046 16.0893 13.0045 15.8791 13.0043L12.4009 13.0044C12.27 13.005 12.1854 13.0059 12.1527 13.0072C10.6767 13.0692 9.3147 13.6952 8.3327 14.7672C7.4167 15.7692 6.9447 17.0492 7.0067 18.3772L7.00835 26.1031C7.00844 26.2737 7.00854 26.4431 7.00863 26.6111L7.01046 28.9991C7.01061 29.1477 7.01077 29.2938 7.01093 29.4372L7.01196 30.2634C7.01214 30.3951 7.01233 30.5237 7.01253 30.6488L7.01447 31.6788C7.0166 32.606 7.0193 33.2074 7.0227 33.3232C7.2507 36.0932 9.8467 38.2112 12.8187 37.9832C13.133 37.9837 13.4559 37.9842 13.7856 37.9847L14.7926 37.9863C15.6454 37.9877 16.5279 37.9892 17.4098 37.9907L18.4658 37.9924C18.9917 37.9933 19.5131 37.9941 20.0232 37.9949L21.0268 37.9964C21.1909 37.9967 21.3534 37.9969 21.5138 37.9971L22.4509 37.9984C22.6025 37.9985 22.7516 37.9987 22.8981 37.9989L26.429 37.9988C26.66 37.998 26.805 37.9968 26.8487 37.9952C28.3187 37.9352 29.6827 37.3112 30.6647 36.2412C31.5827 35.2432 32.0547 33.9632 31.9967 32.6412L31.995 32.6082L31.9946 22.9358C31.9945 22.7787 31.9944 22.6237 31.9943 22.4709L31.9928 20.7592C31.9926 20.6279 31.9925 20.4997 31.9923 20.3749L31.9906 19.3482C31.99 19.04 31.9893 18.768 31.9885 18.5381L31.9868 18.1362C31.9856 17.9079 31.9842 17.7616 31.9827 17.7112C31.7567 14.9272 29.1487 12.7832 26.1607 13.0172ZM41.0371 17.2306L34.9939 22.1612C34.9942 22.4069 34.9944 22.6624 34.9946 22.9275L34.9959 27.9428L41.0131 33.4686C41.4551 33.8286 41.8991 33.6806 42.0711 33.5966C42.2431 33.5166 42.6411 33.2666 42.6411 32.6986L42.6651 18.0006C42.6671 17.4326 42.2671 17.1826 42.0951 17.1006C41.9251 17.0206 41.4751 16.8706 41.0371 17.2306Z" fill="black"/>
</svg>
