<svg width="48" height="48" viewBox="0 0 48 48" fill="none" xmlns="http://www.w3.org/2000/svg">
<path fill-rule="evenodd" clip-rule="evenodd" d="M39.499 19.6018C40.329 19.6018 40.999 20.2738 40.999 21.1018C40.999 30.2862 33.9498 37.847 24.9996 38.6138L24.999 43.5C24.999 44.328 24.327 45 23.499 45C22.671 45 21.999 44.328 21.999 43.5L22.0004 38.614C13.0493 37.8481 5.99902 30.2869 5.99902 21.1018C5.99902 20.2738 6.67102 19.6018 7.49902 19.6018C8.32902 19.6018 8.99902 20.2738 8.99902 21.1018C8.99902 29.1378 15.503 35.6778 23.499 35.6778C31.495 35.6778 37.999 29.1378 37.999 21.1018C37.999 20.2738 38.671 19.6018 39.499 19.6018ZM23.499 2C28.805 2 33.123 6.334 33.123 11.662V21.038C33.123 26.364 28.805 30.698 23.499 30.698C18.193 30.698 13.875 26.364 13.875 21.038V11.662C13.875 6.334 18.193 2 23.499 2ZM23.499 5C19.847 5 16.875 7.988 16.875 11.662V21.038C16.875 24.708 19.847 27.698 23.499 27.698C27.151 27.698 30.123 24.708 30.123 21.038V11.662C30.123 7.988 27.151 5 23.499 5Z" fill="black"/>
</svg>
