<svg width="48" height="48" viewBox="0 0 48 48" fill="none" xmlns="http://www.w3.org/2000/svg">
<path fill-rule="evenodd" clip-rule="evenodd" d="M39.5 19.6018C40.328 19.6018 41 20.2738 41 21.1018C41 30.2862 33.9508 37.847 25.0006 38.6138L25 43.5C25 44.328 24.328 45 23.5 45C22.672 45 22 44.328 22 43.5L22.0014 38.614C13.0503 37.8481 6 30.2869 6 21.1018C6 20.2738 6.672 19.6018 7.5 19.6018C8.328 19.6018 9 20.2738 9 21.1018C9 29.1378 15.504 35.6778 23.5 35.6778C31.496 35.6778 38 29.1378 38 21.1018C38 20.2738 38.672 19.6018 39.5 19.6018ZM23.5 2C28.806 2 33.122 6.334 33.122 11.662V21.038C33.122 26.364 28.806 30.698 23.5 30.698C18.194 30.698 13.876 26.364 13.876 21.038V11.662C13.876 6.334 18.194 2 23.5 2ZM23.5 5C19.848 5 16.876 7.988 16.876 11.662V21.038C16.876 24.708 19.848 27.698 23.5 27.698C27.102 27.698 30.0406 24.7893 30.1203 21.1883L25.641 21.1876C24.813 21.1876 24.141 20.5156 24.141 19.6876C24.141 18.8596 24.813 18.1876 25.641 18.1876L30.12 18.186V14.51L27.6372 14.5118C26.8092 14.5118 26.1372 13.8398 26.1372 13.0118C26.1372 12.1838 26.8092 11.5118 27.6372 11.5118L30.116 11.51L30.1115 11.2845C29.9164 7.78548 27.0261 5 23.5 5Z" fill="black"/>
</svg>
