<svg width="48" height="48" viewBox="0 0 48 48" fill="none" xmlns="http://www.w3.org/2000/svg">
<path fill-rule="evenodd" clip-rule="evenodd" d="M26.9478 8.67075C27.0098 8.70875 27.0718 8.74875 27.1278 8.79475C29.8313 10.9184 30.0298 14.8662 30.0394 22.75L30.0398 23.5007C30.0398 31.8887 29.9158 36.0187 27.1278 38.2107C27.0718 38.2547 27.0098 38.2967 26.9458 38.3327C26.1178 38.8047 25.2758 39.0047 24.4358 39.0047C21.6538 39.0047 18.8958 36.8147 16.7478 35.1107C15.7778 34.3407 14.3118 33.1767 13.8058 33.1247C13.2318 33.0807 12.7358 33.0627 12.2978 33.0507C10.7018 32.9927 9.43977 32.9507 7.95577 31.7267C6.17017 30.2561 6.00619 27.3421 6 24.7737L6.00177 23.9327L6.00377 23.5007L6.00177 23.0687L6 22.2279C6.00619 19.6597 6.17017 16.7473 7.95577 15.2767C9.44177 14.0527 10.7058 14.0087 12.3058 13.9547C12.7418 13.9387 13.2358 13.9227 13.8098 13.8807C14.3118 13.8267 15.7778 12.6627 16.7478 11.8927C19.5438 9.67075 23.3778 6.63675 26.9478 8.67075ZM24.4158 11.0127C22.6798 11.0127 20.4598 12.7747 18.6118 14.2427C16.8338 15.6527 15.4298 16.7687 14.0298 16.8727C13.4098 16.9167 12.8778 16.9367 12.4098 16.9527C10.9158 17.0027 10.5378 17.0367 9.86377 17.5927C9.09027 18.228 9.0043 20.5782 9.00026 22.3416L9.00177 23.0547L9.00377 23.4967V23.5047L9.00177 23.9467L9.00026 24.6605C9.0043 26.4252 9.09027 28.7755 9.86377 29.4107C10.5358 29.9667 10.9138 29.9987 12.4038 30.0527C12.8738 30.0667 13.4078 30.0867 14.0298 30.1327C15.4298 30.2347 16.8338 31.3507 18.6118 32.7607C20.8178 34.5107 23.5518 36.6807 25.3618 35.7787C26.8289 34.5071 27.0279 31.2033 27.0392 24.2122L27.0398 23.5007C27.0398 16.0207 26.8778 12.5387 25.3618 11.2227C25.0678 11.0767 24.7498 11.0127 24.4158 11.0127ZM37.9628 15.3841C40.8328 20.4001 40.8328 26.6201 37.9628 31.6201C37.6848 32.1041 37.1808 32.3741 36.6608 32.3741C36.4068 32.3741 36.1508 32.3101 35.9148 32.1741C35.1968 31.7621 34.9488 30.8441 35.3608 30.1281C37.7028 26.0461 37.7028 20.9701 35.3608 16.8761C34.9488 16.1561 35.1988 15.2401 35.9168 14.8281C36.6368 14.4241 37.5508 14.6661 37.9628 15.3841Z" fill="black"/>
</svg>
