<svg width="48" height="48" viewBox="0 0 48 48" fill="none" xmlns="http://www.w3.org/2000/svg">
<path fill-rule="evenodd" clip-rule="evenodd" d="M40.5604 6.4395C41.1464 7.0255 41.1464 7.9735 40.5604 8.5595L29.6339 19.4866C29.6314 19.4891 29.6289 19.4916 29.6264 19.4941L15.9884 33.1341L15.976 33.144L8.56243 40.5595C8.27043 40.8535 7.88643 40.9995 7.50243 40.9995C7.11843 40.9995 6.73443 40.8535 6.44243 40.5595C5.85643 39.9735 5.85643 39.0255 6.44243 38.4395L11.7604 33.1207C10.4036 33.0565 9.25405 32.8794 7.94443 31.7601C6.18043 30.2517 6.01051 27.2578 6 24.6168L6.00043 23.7521L6.00243 23.2661L6.00043 22.7821L6 21.9173C6.01053 19.2761 6.18063 16.2807 7.94643 14.7741C9.42643 13.5081 10.6944 13.4601 12.2964 13.4001C12.7384 13.3821 13.2364 13.3641 13.8204 13.3181C14.3224 13.2541 15.7804 12.0541 16.7444 11.2621C19.5564 8.9441 23.4104 5.7721 27.0144 7.9081C27.0804 7.9441 27.1424 7.9881 27.2004 8.0361C28.9274 9.44198 29.611 11.595 29.8976 14.9813L38.4404 6.4395C39.0264 5.8535 39.9744 5.8535 40.5604 6.4395ZM28.5852 25.8335C29.4132 25.8455 30.0772 26.5255 30.0652 27.3535C29.9892 33.2635 29.5252 36.6095 27.1992 38.4995C27.1392 38.5455 27.0792 38.5895 27.0152 38.6255C26.1672 39.1275 25.3072 39.3315 24.4652 39.3315C22.4452 39.3315 20.5272 38.1615 19.1052 37.1315C18.4332 36.6475 18.2832 35.7095 18.7672 35.0395C19.2552 34.3675 20.1932 34.2135 20.8632 34.7035C23.4892 36.6015 24.6732 36.4755 25.3912 36.0995C26.5552 35.0615 26.9972 32.7255 27.0652 27.3135C27.0772 26.4855 27.6832 25.8415 28.5852 25.8335ZM24.4604 10.2221C22.7284 10.2221 20.5024 12.0541 18.6504 13.5781C16.8704 15.0421 15.4664 16.1981 14.0564 16.3101C13.4264 16.3581 12.8864 16.3801 12.4104 16.3981C10.9324 16.4521 10.5584 16.4881 9.89443 17.0561C8.98843 17.8301 8.99643 20.9261 9.00043 22.7741L9.00243 23.2661L9.00043 23.7601C8.99643 25.6081 8.98843 28.7041 9.89443 29.4781C10.5724 30.0581 10.9564 30.0941 12.4704 30.1461C12.9284 30.1621 13.4464 30.1801 14.0444 30.2221C14.2164 30.2341 14.3924 30.2621 14.5724 30.3061L27.0484 17.8301C26.9024 13.3801 26.4524 11.3841 25.3924 10.4361C25.1044 10.2881 24.7924 10.2221 24.4604 10.2221Z" fill="black"/>
</svg>
