<svg width="48" height="48" viewBox="0 0 48 48" fill="none" xmlns="http://www.w3.org/2000/svg">
<path fill-rule="evenodd" clip-rule="evenodd" d="M24.9478 8.67075C25.0098 8.70875 25.0718 8.74875 25.1278 8.79475C27.8313 10.9184 28.0298 14.8662 28.0394 22.75L28.0398 23.5007C28.0398 31.8887 27.9158 36.0187 25.1278 38.2107C25.0718 38.2547 25.0098 38.2967 24.9458 38.3327C24.1178 38.8047 23.2758 39.0047 22.4358 39.0047C19.6538 39.0047 16.8958 36.8147 14.7478 35.1107C13.7778 34.3407 12.3118 33.1767 11.8058 33.1247C11.2318 33.0807 10.7358 33.0627 10.2978 33.0507C8.70177 32.9927 7.43977 32.9507 5.95577 31.7267C4.17017 30.2561 4.00619 27.3421 4 24.7737L4.00177 23.9327L4.00377 23.5007L4.00177 23.0687L4 22.2279C4.00619 19.6597 4.17017 16.7473 5.95577 15.2767C7.44177 14.0527 8.70577 14.0087 10.3058 13.9547C10.7418 13.9387 11.2358 13.9227 11.8098 13.8807C12.3118 13.8267 13.7778 12.6627 14.7478 11.8927C17.5458 9.67075 21.3778 6.63675 24.9478 8.67075ZM40.8988 10.4543C46.3248 18.2623 46.3248 28.7483 40.8988 36.5503C40.6068 36.9683 40.1408 37.1923 39.6668 37.1923C39.3708 37.1923 39.0728 37.1043 38.8108 36.9223C38.1308 36.4503 37.9628 35.5163 38.4368 34.8343C43.2228 27.9543 43.2228 19.0563 38.4368 12.1643C37.9628 11.4843 38.1308 10.5503 38.8128 10.0763C39.4928 9.60235 40.4248 9.77235 40.8988 10.4543ZM22.4158 11.0127C20.6798 11.0127 18.4598 12.7747 16.6118 14.2427C14.8338 15.6527 13.4298 16.7687 12.0298 16.8727C11.4098 16.9167 10.8778 16.9367 10.4098 16.9527C8.91577 17.0027 8.53777 17.0367 7.86377 17.5927C7.09027 18.228 7.0043 20.5782 7.00026 22.3416L7.00177 23.0547L7.00377 23.4967V23.5047L7.00177 23.9467L7.00026 24.6605C7.0043 26.4252 7.09027 28.7755 7.86377 29.4107C8.53577 29.9667 8.91377 29.9987 10.4038 30.0527C10.8738 30.0667 11.4078 30.0867 12.0298 30.1327C13.4298 30.2347 14.8338 31.3507 16.6118 32.7607C18.8178 34.5107 21.5498 36.6807 23.3618 35.7787C24.8289 34.5071 25.0279 31.2033 25.0392 24.2122L25.0398 23.5007C25.0398 16.0207 24.8778 12.5387 23.3618 11.2227C23.0678 11.0767 22.7498 11.0127 22.4158 11.0127ZM35.9628 15.3841C38.8328 20.4001 38.8328 26.6201 35.9628 31.6201C35.6848 32.1041 35.1808 32.3741 34.6608 32.3741C34.4068 32.3741 34.1508 32.3101 33.9148 32.1741C33.1968 31.7621 32.9488 30.8441 33.3608 30.1281C35.7028 26.0461 35.7028 20.9701 33.3608 16.8761C32.9488 16.1561 33.1988 15.2401 33.9168 14.8281C34.6368 14.4241 35.5508 14.6661 35.9628 15.3841Z" fill="black"/>
</svg>
