<svg width="48" height="48" viewBox="0 0 48 48" fill="none" xmlns="http://www.w3.org/2000/svg">
<path fill-rule="evenodd" clip-rule="evenodd" d="M33.283 6C39.897 6 45.277 11.38 45.277 17.996V32.35C45.277 38.964 39.897 44.346 33.283 44.346H15.995C9.38102 44.346 3.99902 38.964 3.99902 32.35V17.996C3.99902 11.38 9.38102 6 15.995 6H33.283ZM33.283 9H15.995C11.035 9 6.99902 13.036 6.99902 17.996V32.35C6.99902 37.31 11.035 41.346 15.995 41.346H33.283C38.243 41.346 42.277 37.31 42.277 32.35V31.79L35.6812 31.7912C31.8872 31.7912 28.7992 28.7052 28.7972 24.9132C28.7972 21.1172 31.8852 18.0292 35.6812 18.0272L42.277 18.026V17.996C42.277 13.036 38.243 9 33.283 9ZM42.277 21.026L35.6812 21.0272C33.5392 21.0292 31.7972 22.7712 31.7972 24.9112C31.7972 27.0492 33.5412 28.7912 35.6812 28.7912L42.277 28.79V21.026ZM36.5964 23.2872C37.4244 23.2872 38.0964 23.9592 38.0964 24.7872C38.0964 25.6152 37.4244 26.2872 36.5964 26.2872H35.9724C35.1444 26.2872 34.4724 25.6152 34.4724 24.7872C34.4724 23.9592 35.1444 23.2872 35.9724 23.2872H36.5964ZM25.369 15.0762C26.197 15.0762 26.869 15.7482 26.869 16.5762C26.869 17.4042 26.197 18.0762 25.369 18.0762H14.571C13.743 18.0762 13.071 17.4042 13.071 16.5762C13.071 15.7482 13.743 15.0762 14.571 15.0762H25.369Z" fill="black"/>
</svg>
