<svg width="48" height="48" viewBox="0 0 48 48" fill="none" xmlns="http://www.w3.org/2000/svg">
<path fill-rule="evenodd" clip-rule="evenodd" d="M42.5454 29.4703C43.3714 29.5323 43.9894 30.2543 43.9274 31.0803L43.5474 36.0983C43.2334 40.2383 39.7394 43.4803 35.5894 43.4803H12.3894C8.2394 43.4803 4.7454 40.2383 4.4314 36.0983L4.0514 31.0803C3.9894 30.2543 4.6094 29.5323 5.4354 29.4703C6.2654 29.4403 6.9814 30.0263 7.0454 30.8543L7.4234 35.8703C7.6194 38.4543 9.7994 40.4803 12.3894 40.4803H35.5894C38.1794 40.4803 40.3614 38.4543 40.5554 35.8703L40.9354 30.8543C40.9994 30.0263 41.7334 29.4383 42.5454 29.4703ZM26.5698 4.00009C29.5757 4.00009 32.0659 6.25262 32.441 9.15814L36.38 9.15989C40.572 9.15989 43.98 12.5779 43.98 16.7819V23.6599C43.98 24.1939 43.696 24.6859 43.238 24.9539C38.3014 27.8449 32.0478 29.5311 25.4891 29.756L25.4898 33.3533C25.4898 34.1813 24.8178 34.8533 23.9898 34.8533C23.1618 34.8533 22.4898 34.1813 22.4898 33.3533L22.4885 29.7565C15.9364 29.5336 9.68231 27.8471 4.742 24.9539C4.282 24.6859 4 24.1939 4 23.6599V16.7619C4 12.5699 7.418 9.15989 11.62 9.15989L15.5386 9.15814C15.9137 6.25262 18.4039 4.00009 21.4098 4.00009H26.5698ZM36.38 12.1599H11.62C9.072 12.1599 7 14.2239 7 16.7619V22.7859C11.7474 25.3654 17.7325 26.7792 23.962 26.7819L23.9898 26.7793L24.012 26.7801L24.9643 26.7702C30.8559 26.6298 36.4762 25.232 40.98 22.7859V16.7819C40.98 14.2319 38.918 12.1599 36.38 12.1599ZM26.5698 7.00009H21.4098C20.0631 7.00009 18.9263 7.91664 18.5905 9.15865H29.3891C29.0533 7.91664 27.9165 7.00009 26.5698 7.00009Z" fill="black"/>
</svg>
