<svg width="48" height="48" viewBox="0 0 48 48" fill="none" xmlns="http://www.w3.org/2000/svg">
<path d="M37.9286 9.89286C34.2679 6.14286 29.2679 4 23.9107 4C13.0179 4 4.08929 12.9286 4.08929 23.8214C4.08929 27.3929 5.07143 30.7857 6.76786 33.7321L4 44L14.4464 41.3214C17.3929 42.8393 20.6071 43.7321 23.9107 43.7321C34.8929 43.7321 44 34.8036 44 23.9107C44 18.5536 41.6786 13.6429 37.9286 9.89286ZM23.9107 40.3393C20.9643 40.3393 18.1071 39.5357 15.5179 38.0179L14.9821 37.6607L8.73214 39.3571L10.4286 33.2857L9.98214 32.6607C8.375 29.9821 7.48214 26.9464 7.48214 23.8214C7.48214 14.8036 14.8929 7.39286 24 7.39286C28.375 7.39286 32.4821 9.08929 35.6071 12.2143C38.7321 15.3393 40.6071 19.4464 40.6071 23.9107C40.6071 32.9286 33.0179 40.3393 23.9107 40.3393ZM33.0179 28.0179C32.4821 27.75 30.0714 26.5893 29.625 26.4107C29.1786 26.2321 28.8214 26.1429 28.4643 26.6786C28.1964 27.125 27.2143 28.2857 26.9464 28.6429C26.5893 28.9107 26.3214 29 25.875 28.7321C22.9286 27.3036 21.0536 26.1429 19.0893 22.8393C18.5536 21.9464 19.625 22.0357 20.5179 20.1607C20.6964 19.8036 20.6071 19.5357 20.5179 19.2679C20.4286 19 19.3571 16.5893 19 15.6071C18.5536 14.625 18.1964 14.7143 17.8393 14.7143C17.5714 14.7143 17.2143 14.7143 16.9464 14.7143C16.5893 14.7143 16.0536 14.8036 15.6071 15.3393C15.1607 15.875 13.9107 17.0357 13.9107 19.4464C13.9107 21.9464 15.6071 24.2679 15.875 24.625C16.1429 24.8929 19.3571 29.8929 24.3571 32.0357C27.4821 33.4643 28.7321 33.5536 30.3393 33.2857C31.2321 33.1964 33.1964 32.125 33.6429 30.9643C34.0893 29.8036 34.0893 28.8214 33.9107 28.6429C33.8214 28.375 33.4643 28.2857 33.0179 28.0179Z" fill="white"/>
</svg>
